<svg width="67" height="65" viewBox="0 0 67 65" fill="none" xmlns="http://www.w3.org/2000/svg">
<path d="M65.8725 39.1803C66.0252 39.1914 66.1845 39.216 66.3262 39.2763C66.5673 39.3789 66.746 39.5903 66.8354 39.8334C66.9654 40.1869 66.9592 40.6676 66.7892 41.0074C66.6463 41.2928 66.4415 41.4374 66.1438 41.5339C65.9508 41.5383 65.7983 41.5313 65.6257 41.4371C65.3832 41.3046 65.2231 41.0738 65.1463 40.8119C65.0381 40.4432 65.0648 39.9659 65.2556 39.6278C65.404 39.3647 65.5902 39.2618 65.8725 39.1803Z" fill="url(#paint0_radial_52_468)"/>
<path d="M42.3673 39.2221C42.5402 39.2284 42.693 39.2367 42.847 39.3229C43.0863 39.457 43.2384 39.7059 43.3077 39.9652C43.4171 40.3742 43.3782 40.9046 43.1632 41.2745C43.0155 41.5286 42.8464 41.6395 42.5665 41.7139C42.3783 41.7002 42.2075 41.6762 42.0432 41.5767C41.7641 41.4077 41.5889 41.1116 41.5238 40.7973C41.4456 40.4191 41.4946 39.9598 41.7147 39.635C41.883 39.3865 42.0794 39.2824 42.3673 39.2221Z" fill="url(#paint1_radial_52_468)"/>
<path d="M4.2766 61.3696C5.72115 61.3654 7.16565 61.3719 8.6101 61.389C8.61147 61.987 8.72617 63.5215 8.59427 64.0055L8.53106 64.0409C7.06288 64.0519 5.59468 64.0551 4.12644 64.0506C4.12477 63.6092 4.04741 61.6819 4.17208 61.3928L4.2766 61.3696Z" fill="url(#paint2_radial_52_468)"/>
<path d="M26.0754 61.3692C26.886 61.3381 27.7031 61.3527 28.5145 61.3521C29.3141 61.3514 30.1181 61.3346 30.9171 61.3657C30.9794 62.078 30.9722 63.32 30.9239 64.052C29.3056 64.075 27.6872 64.0784 26.0688 64.0621C26.0624 63.1645 26.0645 62.2668 26.0754 61.3692Z" fill="url(#paint3_radial_52_468)"/>
<path d="M13.6808 9.36125C16.1892 9.33113 18.7108 9.32497 21.2185 9.38187C21.2111 10.6206 21.2405 11.8583 21.2019 13.0969C18.6952 13.0628 16.1862 13.0849 13.6791 13.0844L13.6808 9.36125Z" fill="url(#paint4_radial_52_468)"/>
<path d="M55.135 6.29708C55.6404 6.29687 56.1457 6.3027 56.651 6.31457C56.7108 11.5427 56.6546 16.7766 56.6552 22.0053L56.6555 26.7762C56.6558 27.4654 56.7278 28.341 56.6333 29.0007L56.5735 29.0422C56.0598 28.9318 55.5511 28.8306 55.0269 28.7862L55.0205 11.9788L55.0098 8.11171C55.008 7.63539 54.9313 6.74222 55.0397 6.32887L55.135 6.29708Z" fill="url(#paint5_radial_52_468)"/>
<path fill-rule="evenodd" clip-rule="evenodd" d="M63.4211 19.8273L63.3811 19.8045C62.9251 20.6818 62.371 21.5057 61.8183 22.3275C61.6521 22.5747 61.4859 22.8218 61.3226 23.07C61.2446 23.1886 61.1645 23.3082 61.0836 23.4289C60.5671 24.1995 60.0207 25.0145 59.8089 25.9096C59.6724 26.4862 59.7162 27.1009 59.894 27.664C60.1876 28.5943 60.931 29.4399 61.7966 29.8833C62.2966 30.1393 62.8678 30.2516 63.4273 30.2425C64.5023 30.1467 65.3638 29.8072 66.0701 28.9632C66.6937 28.2181 67.0752 27.2752 66.9875 26.2942C66.877 25.0579 66.0052 23.8373 65.2176 22.7347C64.9697 22.3876 64.7301 22.0522 64.5252 21.7316C64.3035 21.3846 64.104 21.0268 63.9046 20.6693C63.747 20.3867 63.5895 20.1043 63.4211 19.8273ZM64.8601 26.2072C64.6909 25.8671 63.564 24.0345 63.3564 23.8372C62.9029 24.4009 61.9352 25.8489 61.7249 26.4948C61.6523 26.718 61.6216 26.9435 61.6447 27.1777C61.6877 27.6141 61.8967 28.0288 62.2388 28.3059C62.5632 28.5686 62.9434 28.6811 63.3527 28.714C63.9079 28.6527 64.3618 28.468 64.7139 28.0116C64.9819 27.6643 65.1121 27.2367 65.0486 26.7995C65.0182 26.5912 64.9536 26.3953 64.8601 26.2072Z" fill="url(#paint6_radial_52_468)"/>
<path d="M55.6344 60.3048L63.9934 60.3166C63.9973 61.5619 64.0258 62.8068 64.023 64.0523C60.3693 64.109 56.7087 64.0685 53.0543 64.0657L44.661 64.0619L44.6612 60.3179L55.6344 60.3048Z" fill="url(#paint7_radial_52_468)"/>
<path d="M30.9558 0.0219813L43.668 0.0340832L47.1701 0.0158959C47.9884 0.0109135 48.8489 -0.0483574 49.6564 0.0994852C50.5823 0.269037 51.5252 0.728949 52.1976 1.39149C52.2419 1.4349 52.2854 1.47917 52.328 1.5243C52.3706 1.56943 52.4123 1.61535 52.4532 1.66205C52.494 1.70881 52.5339 1.75633 52.5729 1.8046C52.6119 1.85283 52.6499 1.90182 52.687 1.95156C52.7241 2.00131 52.7603 2.05177 52.7954 2.10294C52.8305 2.1541 52.8646 2.2059 52.8978 2.25834C52.9309 2.31082 52.963 2.36392 52.9941 2.41762C53.0252 2.47132 53.0552 2.52561 53.0842 2.58048C53.1132 2.63535 53.1411 2.69078 53.1679 2.74676C53.1947 2.80269 53.2205 2.85914 53.2451 2.91608C53.2697 2.97303 53.2933 3.03044 53.3158 3.0883C53.3382 3.14616 53.3595 3.20443 53.3797 3.2631C53.3998 3.32182 53.4188 3.38087 53.4367 3.44026C53.4546 3.49969 53.4713 3.55945 53.4869 3.61955C53.5025 3.67959 53.5169 3.73993 53.5301 3.80058C53.5433 3.86118 53.5554 3.92204 53.5663 3.98314C53.7367 4.96333 53.649 6.05549 53.6513 7.04907C53.6696 8.73668 53.6741 10.4243 53.6648 12.112L53.6567 28.7988C53.0771 28.8135 52.5287 28.8959 51.9602 28.9993C51.9533 26.8937 51.9574 24.7882 51.9724 22.6828L51.9871 9.54336L51.9681 6.49234C51.9646 5.68612 52.0531 4.79454 51.8467 4.01159C51.83 3.94612 51.8111 3.88132 51.79 3.81717C51.7689 3.75297 51.7456 3.68958 51.7203 3.627C51.6949 3.56437 51.6674 3.50268 51.6379 3.44193C51.6083 3.38118 51.5768 3.32149 51.5432 3.26287C51.5096 3.20425 51.4741 3.14682 51.4367 3.09058C51.3993 3.03434 51.36 2.97942 51.3188 2.92582C51.2777 2.87227 51.2348 2.82014 51.1901 2.76943C51.1454 2.71877 51.0991 2.66965 51.0511 2.62209C50.1059 1.68008 49.0904 1.63604 47.8385 1.63688L23.5198 1.63893C22.6772 1.63954 21.7488 1.56142 20.9191 1.69028C20.2065 1.80103 19.4675 2.16014 18.9596 2.67473C17.9727 3.67477 18.005 4.79675 18.0079 6.10783L18.0119 8.29839L16.3929 8.30683C16.4012 7.52175 16.3929 6.73598 16.3925 5.95083C16.3914 4.15292 16.5011 2.90041 17.8285 1.54088C18.4559 0.898425 19.2736 0.397787 20.1483 0.180321C21.2165 -0.0853105 23.2061 0.038647 24.3888 0.0391339L30.9558 0.0219813Z" fill="url(#paint8_radial_52_468)"/>
<path d="M0.0581801 56.5204C1.61493 56.4947 3.17574 56.5199 4.73304 56.5167L16.4397 56.5189C22.524 56.524 28.6138 56.4596 34.6973 56.5363C34.7188 57.622 34.7171 58.3921 33.9569 59.2414C33.9382 59.2599 33.9192 59.278 33.8998 59.2958C33.8494 59.3417 33.7973 59.3854 33.7435 59.4271C33.6896 59.4688 33.6342 59.5084 33.5772 59.5457C33.5202 59.583 33.4619 59.6181 33.4021 59.6508C33.3423 59.6835 33.2814 59.7138 33.2193 59.7417C33.1571 59.7696 33.0939 59.795 33.0298 59.8179C32.9656 59.8408 32.9007 59.8611 32.8349 59.8789C32.7691 59.8967 32.7028 59.9118 32.6358 59.9243C32.5688 59.9368 32.5015 59.9467 32.4337 59.9539C31.9182 60.0104 31.3869 59.9835 30.8689 59.98L28.4941 59.9679L20.6521 59.9746L8.95434 59.9703L5.02407 59.974C4.27923 59.9746 3.52625 59.9969 2.78232 59.9636C1.98562 59.9279 1.32806 59.7174 0.779799 59.11C0.0783529 58.3328 0.0117872 57.52 0.0581801 56.5204Z" fill="url(#paint9_radial_52_468)"/>
<path fill-rule="evenodd" clip-rule="evenodd" d="M53.5973 30.2516C53.5842 30.2527 53.5711 30.2544 53.5581 30.2557C51.1032 30.4218 48.6597 31.51 47.0299 33.3816C45.5988 35.025 44.7558 36.9313 44.6553 39.1235L55.2887 39.1207C58.201 39.1412 61.1132 39.1375 64.0255 39.1096C64.0191 39.0328 64.0117 38.956 64.0034 38.8793C64.0005 38.8529 63.9976 38.8265 63.9945 38.8001C63.9886 38.7499 63.9824 38.6997 63.9757 38.6496C63.9656 38.5731 63.9545 38.4968 63.9425 38.4206C63.9304 38.3445 63.9175 38.2684 63.9037 38.1926C63.8898 38.1167 63.875 38.041 63.8592 37.9655C63.8435 37.89 63.8269 37.8147 63.8094 37.7396C63.7918 37.6646 63.7733 37.5897 63.7539 37.5151C63.7345 37.4404 63.7142 37.366 63.693 37.2918C63.6775 37.2375 63.6615 37.1834 63.6449 37.1294C63.6389 37.1096 63.6328 37.0899 63.6267 37.0702C63.6036 36.9966 63.5797 36.9233 63.5549 36.8502C63.5428 36.8144 63.5304 36.7786 63.5178 36.7429C63.5047 36.7059 63.4914 36.669 63.4779 36.6322C63.4513 36.5598 63.4238 36.4877 63.3955 36.416C63.3671 36.3442 63.3379 36.2729 63.3078 36.2019C63.2778 36.1308 63.2468 36.0602 63.2151 35.9899C63.1833 35.9197 63.1506 35.8498 63.1171 35.7804C63.0835 35.7109 63.0492 35.6419 63.014 35.5733C62.9983 35.5426 62.9824 35.512 62.9663 35.4815C62.9464 35.4438 62.9263 35.4062 62.9059 35.3687C62.869 35.3009 62.8314 35.2337 62.7929 35.1668C62.7544 35.1 62.7151 35.0337 62.6749 34.9678C62.6348 34.902 62.5939 34.8366 62.5521 34.7717C62.5104 34.7069 62.4679 34.6425 62.4246 34.5787C62.4052 34.5501 62.3856 34.5216 62.3659 34.4932C62.3417 34.4582 62.3172 34.4234 62.2925 34.3888C62.2476 34.3261 62.202 34.2639 62.1557 34.2023C62.1093 34.1406 62.0622 34.0796 62.0143 34.0191C61.9665 33.9586 61.9179 33.8988 61.8686 33.8395C61.8193 33.7801 61.7693 33.7214 61.7185 33.6634C61.6678 33.6053 61.6163 33.5479 61.5642 33.491C61.512 33.4342 61.4592 33.378 61.4057 33.3225C61.3522 33.267 61.298 33.2121 61.2431 33.1579C61.1883 33.1037 61.1328 33.0502 61.0766 32.9973C61.0204 32.9445 60.9636 32.8923 60.9062 32.8409C60.8488 32.7894 60.7907 32.7386 60.732 32.6886C58.8172 31.0437 56.133 30.0448 53.5973 30.2516ZM55.985 35.8657C54.0949 35.8581 52.204 35.8505 50.3167 35.8861L49.6537 35.9L49.6501 37.2355L58.5413 37.2339L59.012 37.2371C59.0135 37.0907 59.0154 36.9443 59.0174 36.7979C59.0214 36.489 59.0255 36.18 59.0252 35.8712C58.0125 35.8738 56.9989 35.8698 55.985 35.8657Z" fill="url(#paint10_radial_52_468)"/>
<path d="M44.6594 40.4346L63.9838 40.4373C64.023 46.5965 64.0304 52.7557 64.0058 58.915C63.3568 58.9579 62.6767 58.9183 62.0245 58.9199L57.8356 58.928L44.6568 58.9124L44.6594 40.4346Z" fill="url(#paint11_radial_52_468)"/>
<path d="M26.7807 47.214C27.1059 47.2061 27.4225 47.2703 27.7013 47.4438C28.0164 47.6397 28.2595 47.9605 28.3364 48.3261C28.4106 48.6786 28.3285 49.0658 28.1324 49.3662C27.8963 49.7277 27.551 49.8896 27.1444 49.9821C26.7718 50.0128 26.4497 49.984 26.1268 49.7766C26.0882 49.7517 26.0508 49.725 26.0147 49.6964C25.9787 49.6678 25.9442 49.6375 25.9112 49.6055C25.8782 49.5736 25.8468 49.54 25.8171 49.5049C25.7873 49.4698 25.7594 49.4334 25.7334 49.3955C25.7073 49.3577 25.6831 49.3186 25.6608 49.2783C25.6385 49.2381 25.6183 49.1969 25.6002 49.1547C25.582 49.1124 25.5659 49.0694 25.552 49.0256C25.5381 48.9818 25.5264 48.9374 25.5168 48.8924C25.5119 48.8698 25.5076 48.8471 25.5039 48.8244C25.5002 48.8016 25.497 48.7788 25.4945 48.7558C25.4919 48.7329 25.4899 48.7099 25.4885 48.6868C25.4872 48.6638 25.4864 48.6408 25.4862 48.6177C25.4859 48.5946 25.4863 48.5716 25.4872 48.5486C25.4881 48.5255 25.4897 48.5025 25.4918 48.4795C25.4939 48.4565 25.4966 48.4336 25.4999 48.4108C25.5032 48.3879 25.507 48.3652 25.5115 48.3426C25.5159 48.3199 25.5209 48.2974 25.5265 48.275C25.5321 48.2526 25.5382 48.2304 25.545 48.2083C25.5517 48.1862 25.5589 48.1643 25.5667 48.1426C25.5745 48.1209 25.5829 48.0994 25.5918 48.0781C25.6007 48.0568 25.6102 48.0358 25.6202 48.015C25.6301 47.9942 25.6406 47.9737 25.6517 47.9534C25.6627 47.9331 25.6742 47.9132 25.6863 47.8935C25.6983 47.8738 25.7108 47.8544 25.7239 47.8354C25.976 47.4716 26.3526 47.2838 26.7807 47.214Z" fill="url(#paint12_radial_52_468)"/>
<path d="M7.8822 47.1322C8.23081 47.12 8.52192 47.1614 8.82383 47.3482C9.16871 47.5614 9.43472 47.9142 9.52546 48.3112C9.5352 48.3557 9.54273 48.4004 9.54805 48.4456C9.55333 48.4907 9.55637 48.536 9.55718 48.5814C9.55804 48.6269 9.55662 48.6722 9.55292 48.7176C9.54927 48.7629 9.54339 48.8079 9.53527 48.8526C9.52716 48.8973 9.51684 48.9415 9.50432 48.9853C9.49184 49.029 9.47724 49.0719 9.4605 49.1142C9.44372 49.1564 9.4249 49.1978 9.40406 49.2382C9.38322 49.2786 9.36045 49.3179 9.33575 49.356C9.10383 49.7153 8.75491 49.9015 8.34788 49.9972C8.02521 50.0157 7.72079 49.9825 7.42649 49.8373C7.40478 49.8269 7.38338 49.8158 7.36229 49.8041C7.34119 49.7924 7.3204 49.7802 7.29991 49.7675C7.27943 49.7548 7.25932 49.7415 7.23959 49.7277C7.21982 49.7139 7.20042 49.6996 7.1814 49.6848C7.16239 49.67 7.14377 49.6546 7.12557 49.6388C7.10736 49.623 7.08959 49.6068 7.07225 49.59C7.0549 49.5732 7.03799 49.5561 7.02151 49.5384C7.00508 49.5208 6.98913 49.5028 6.97367 49.4842C6.95815 49.4658 6.94316 49.4469 6.92871 49.4277C6.91421 49.4084 6.90021 49.3888 6.88672 49.3688C6.87328 49.3487 6.86038 49.3284 6.848 49.3077C6.83563 49.287 6.82379 49.266 6.81248 49.2447C6.80122 49.2234 6.79052 49.2018 6.78038 49.1799C6.77024 49.158 6.76068 49.1359 6.7517 49.1136C6.74273 49.0912 6.73436 49.0686 6.7266 49.0457C6.71879 49.023 6.71162 49 6.70507 48.9767C6.69818 48.9534 6.69189 48.9298 6.68621 48.9061C6.68048 48.8824 6.67541 48.8586 6.671 48.8346C6.66653 48.8107 6.66271 48.7866 6.65951 48.7625C6.65627 48.7383 6.65368 48.7141 6.65175 48.6897C6.64983 48.6654 6.64851 48.6411 6.6478 48.6168C6.64709 48.5924 6.64704 48.5681 6.64765 48.5437C6.6482 48.5193 6.64939 48.495 6.65122 48.4707C6.6531 48.4464 6.65558 48.4221 6.65867 48.3979C6.66177 48.3738 6.66547 48.3497 6.66978 48.3257C6.67414 48.3017 6.67911 48.2779 6.68469 48.2542C6.69027 48.2304 6.69645 48.2069 6.70325 48.1834C6.71004 48.1601 6.71745 48.1369 6.72546 48.1138C6.73347 48.0908 6.74207 48.068 6.75125 48.0455C6.76043 48.0228 6.77019 48.0005 6.78053 47.9784C6.79088 47.9564 6.80178 47.9346 6.81324 47.9131C6.8247 47.8916 6.83672 47.8704 6.8493 47.8495C7.0829 47.4613 7.45136 47.2403 7.8822 47.1322Z" fill="url(#paint13_radial_52_468)"/>
<path d="M17.2832 47.0975C17.599 47.0834 17.9445 47.1562 18.219 47.3142C18.2591 47.3372 18.298 47.362 18.3356 47.3889C18.3733 47.4157 18.4095 47.4443 18.4443 47.4748C18.479 47.5052 18.5122 47.5373 18.5438 47.5711C18.5753 47.6048 18.6051 47.6401 18.6332 47.6768C18.6613 47.7136 18.6874 47.7516 18.7117 47.7909C18.7359 47.8303 18.7581 47.8708 18.7783 47.9123C18.7985 47.9539 18.8166 47.9964 18.8325 48.0397C18.8485 48.0832 18.8623 48.1272 18.8738 48.172C18.8803 48.1961 18.8862 48.2205 18.8915 48.2451C18.8967 48.2696 18.9013 48.2942 18.9053 48.3189C18.9093 48.3437 18.9126 48.3685 18.9154 48.3935C18.9181 48.4184 18.9202 48.4433 18.9216 48.4684C18.923 48.4934 18.9238 48.5184 18.924 48.5435C18.9242 48.5686 18.9237 48.5936 18.9225 48.6187C18.9214 48.6437 18.9197 48.6687 18.9173 48.6937C18.9149 48.7186 18.9119 48.7435 18.9082 48.7683C18.9045 48.7931 18.9002 48.8178 18.8952 48.8423C18.8903 48.8669 18.8848 48.8914 18.8786 48.9157C18.8724 48.9399 18.8656 48.9641 18.8582 48.988C18.8507 49.012 18.8427 49.0357 18.8341 49.0593C18.8254 49.0828 18.8162 49.1061 18.8064 49.1292C18.7965 49.1522 18.7861 49.175 18.7751 49.1976C18.7641 49.2201 18.7525 49.2423 18.7404 49.2643C18.7283 49.2862 18.7156 49.3078 18.7024 49.3291C18.4655 49.7055 18.1327 49.879 17.7157 49.9804C17.3354 49.9864 17.0016 49.9868 16.6625 49.7824C16.3242 49.5784 16.0888 49.224 16.0084 48.8394C15.9989 48.7941 15.9916 48.7484 15.9867 48.7024C15.9818 48.6564 15.9791 48.6103 15.9788 48.564C15.9784 48.5178 15.9803 48.4716 15.9845 48.4255C15.9888 48.3794 15.9953 48.3337 16.0041 48.2883C16.0129 48.2428 16.0239 48.1979 16.0372 48.1536C16.0504 48.1093 16.0658 48.0657 16.0834 48.0229C16.101 47.9801 16.1207 47.9383 16.1425 47.8975C16.1642 47.8567 16.1879 47.817 16.2136 47.7785C16.4668 47.3975 16.8444 47.1898 17.2832 47.0975Z" fill="url(#paint14_radial_52_468)"/>
<path fill-rule="evenodd" clip-rule="evenodd" d="M4.13102 14.6518C4.20976 14.6502 4.28851 14.6489 4.36725 14.648L28.729 14.6468C28.988 14.6465 29.2582 14.6394 29.5328 14.6323H29.5348C30.2487 14.6138 30.9928 14.5945 31.6508 14.6893C32.4471 14.8041 33.1981 15.1996 33.7663 15.7658C34.1884 16.1864 34.4878 16.7684 34.6157 17.3485C34.7689 18.0433 34.7453 19.0691 34.7252 19.9441C34.719 20.2144 34.7131 20.4702 34.7129 20.6975L34.7126 26.243C35.245 26.2475 35.7779 26.2442 36.3106 26.241C36.5851 26.2393 36.8594 26.2376 37.1337 26.237C37.2352 26.2368 37.339 26.2343 37.4438 26.2317C37.7439 26.2245 38.0522 26.217 38.3388 26.2623C38.5408 26.2942 38.7709 26.3712 38.9183 26.5192C39.0635 26.665 39.1191 26.8731 39.1346 27.0723C39.1802 27.6522 39.172 28.2461 39.1638 28.8357V28.8384C39.1604 29.0854 39.157 29.3316 39.1575 29.5757L39.163 34.3794L39.1976 47.3594L43.3385 47.3604C43.344 47.954 43.3449 48.5476 43.3414 49.1412L37.5142 49.1479C37.4674 48.5075 37.4742 47.8584 37.4809 47.2128V47.2101C37.4831 46.9996 37.4854 46.7895 37.4857 46.5801L37.4898 42.3826L37.4876 27.8514C36.862 27.8464 36.236 27.85 35.61 27.8535C35.4894 27.8542 35.3687 27.8549 35.248 27.8555C35.0697 27.8565 34.8915 27.8572 34.7132 27.8577L34.7094 28.9274L34.7377 45.0224C34.758 48.3871 34.7468 51.7517 34.7042 55.1162L0.0492932 55.1294C-0.0228175 49.1589 -3.1021e-05 43.1848 0.0227554 37.2119V37.2092C0.0323195 34.7017 0.0418835 32.1945 0.0444277 29.6878L0.0229412 22.0668L0.0084373 19.723C0.00775018 19.6109 0.0060788 19.4982 0.00440742 19.3852C-0.00198096 18.9536 -0.00842506 18.5176 0.0392464 18.0915C0.127885 17.2991 0.412651 16.5897 0.94155 15.9878C1.68212 15.1451 2.66155 14.729 3.76837 14.662C3.80176 14.6608 3.83515 14.6597 3.86854 14.6587C3.95601 14.6559 4.04352 14.6536 4.13102 14.6518ZM26.8549 45.8108C27.4712 45.7537 28.1531 45.9956 28.6347 46.3721C29.2069 46.8195 29.6164 47.5021 29.7031 48.2268C29.7917 48.9667 29.595 49.74 29.1243 50.3222C28.6034 50.9666 27.9257 51.2637 27.115 51.3481C26.4285 51.351 25.7506 51.1565 25.2086 50.7267C25.1719 50.6975 25.1358 50.6675 25.1006 50.6365C25.0653 50.6056 25.0308 50.5738 24.9971 50.5412C24.9634 50.5085 24.9306 50.475 24.8985 50.4407L24.8893 50.4307L24.8785 50.419C24.8694 50.4089 24.8602 50.3988 24.8512 50.3886C24.8356 50.3711 24.8203 50.3533 24.8051 50.3354C24.7749 50.2995 24.7455 50.263 24.717 50.2256C24.7007 50.2041 24.6846 50.1822 24.6688 50.1602C24.6572 50.1441 24.6458 50.1279 24.6346 50.1115C24.6081 50.0728 24.5825 50.0335 24.5579 49.9936C24.5334 49.9535 24.5098 49.913 24.4872 49.8718C24.4813 49.8609 24.4754 49.8499 24.4695 49.8389C24.4629 49.8264 24.4564 49.8139 24.4499 49.8013C24.4407 49.7832 24.4316 49.765 24.4227 49.7467L24.4164 49.7335L24.4095 49.719C24.4036 49.7066 24.3979 49.6942 24.3923 49.6817C24.3828 49.6608 24.3735 49.6397 24.3646 49.6185C24.3462 49.5754 24.329 49.5318 24.3128 49.4877C24.2967 49.4436 24.2817 49.3992 24.2677 49.3544L24.2634 49.3403L24.2561 49.3162L24.2497 49.2942C24.2451 49.2783 24.2408 49.2624 24.2365 49.2465L24.2336 49.2354L24.2293 49.219C24.2176 49.1735 24.2071 49.1278 24.1978 49.0818C24.1883 49.0358 24.1801 48.9896 24.173 48.9432C24.1659 48.8969 24.16 48.8504 24.1552 48.8036C24.0798 48.0761 24.3296 47.3368 24.7935 46.7762C25.3261 46.1325 26.0454 45.8857 26.8549 45.8108ZM9.9391 46.3781C9.38762 45.9059 8.62652 45.7221 7.91142 45.7712C7.10615 45.8622 6.40963 46.1734 5.89466 46.8178C5.4331 47.3954 5.20093 48.1601 5.28955 48.8961C5.37955 49.6437 5.77165 50.3762 6.36711 50.842C6.3784 50.8507 6.38976 50.8593 6.40117 50.8678C6.42509 50.8856 6.44923 50.9031 6.47367 50.9202C6.50977 50.9454 6.54646 50.9698 6.58368 50.9934C6.60229 51.0052 6.62101 51.0168 6.63988 51.0281C6.64794 51.033 6.65603 51.0378 6.66417 51.0426C6.67505 51.049 6.68597 51.0553 6.69693 51.0616C6.73522 51.0834 6.774 51.1043 6.81325 51.1244C6.85244 51.1445 6.89211 51.1637 6.93222 51.1819C6.97233 51.2002 7.01282 51.2175 7.05375 51.2339C7.07919 51.2441 7.10478 51.254 7.13052 51.2634L7.1485 51.27L7.16265 51.275L7.1775 51.2803C7.18742 51.2837 7.19734 51.2871 7.20725 51.2905L7.2243 51.2962C7.25049 51.3048 7.27682 51.3131 7.30327 51.3209C7.3455 51.3335 7.38799 51.3451 7.43074 51.3558C7.47349 51.3665 7.51646 51.3761 7.55969 51.3848C7.56946 51.3867 7.57923 51.3887 7.58903 51.3906C7.59851 51.3924 7.60798 51.3941 7.61748 51.3958C7.64155 51.4002 7.66566 51.4042 7.68984 51.4079C7.7048 51.4102 7.71981 51.4124 7.73482 51.4145C7.74648 51.4161 7.75814 51.4176 7.7698 51.419C7.78681 51.4212 7.80382 51.4231 7.82087 51.4249C7.86474 51.4297 7.90868 51.4334 7.95265 51.4361C7.99659 51.4387 8.0406 51.4404 8.08469 51.4411C8.12874 51.4417 8.17283 51.4414 8.21688 51.4401C8.22427 51.4399 8.23166 51.4396 8.23901 51.4393C8.25057 51.4389 8.26212 51.4383 8.27367 51.4378C8.29874 51.4365 8.32381 51.4349 8.34888 51.433C9.08336 51.3817 9.77412 51.0084 10.2574 50.4566C10.7633 49.879 10.9972 49.1241 10.9375 48.362C10.9343 48.3146 10.9299 48.2672 10.9243 48.22C10.9187 48.1729 10.9119 48.1259 10.904 48.079C10.8961 48.0322 10.887 47.9855 10.8767 47.9391C10.8665 47.8927 10.8551 47.8465 10.8425 47.8008C10.83 47.7549 10.8163 47.7094 10.8015 47.6642C10.7867 47.6191 10.7707 47.5743 10.7537 47.53C10.7366 47.4856 10.7185 47.4417 10.6993 47.3982C10.68 47.3547 10.6597 47.3118 10.6384 47.2694C10.617 47.2269 10.5946 47.185 10.5711 47.1437C10.5477 47.1023 10.5233 47.0616 10.4978 47.0215C10.4723 46.9813 10.4458 46.9419 10.4184 46.9031C10.391 46.8643 10.3626 46.8262 10.3332 46.7888C10.3178 46.7692 10.3022 46.7497 10.2863 46.7306C10.2719 46.7132 10.2573 46.696 10.2424 46.6789C10.227 46.6611 10.2112 46.6434 10.1953 46.626C10.1792 46.6083 10.1629 46.5909 10.1464 46.5737C10.1335 46.5603 10.1206 46.547 10.1075 46.5339C10.087 46.5134 10.0663 46.4932 10.0452 46.4732C10.0106 46.4406 9.97528 46.4089 9.9391 46.3781ZM17.0669 45.7692C17.7532 45.6825 18.5186 45.8409 19.104 46.2118C19.1409 46.2348 19.1772 46.2586 19.2128 46.2834C19.2485 46.3082 19.2835 46.3338 19.3179 46.3603C19.3524 46.3868 19.3861 46.4141 19.4192 46.4422C19.4522 46.4704 19.4845 46.4994 19.5161 46.5291C19.5478 46.5589 19.5787 46.5894 19.6088 46.6207C19.6249 46.6374 19.6408 46.6544 19.6565 46.6715C19.6701 46.6864 19.6835 46.7015 19.6967 46.7167C19.7253 46.7494 19.753 46.7828 19.7799 46.8169C19.8067 46.851 19.8328 46.8857 19.858 46.9211C19.8831 46.9565 19.9074 46.9925 19.9308 47.0291C19.9408 47.0448 19.9506 47.0606 19.9603 47.0764C19.9708 47.0936 19.9811 47.111 19.9912 47.1284L19.9982 47.1405C20.004 47.1508 20.0099 47.1611 20.0156 47.1715L20.0264 47.1911C20.0379 47.2123 20.0491 47.2337 20.06 47.2551C20.0797 47.2939 20.0984 47.3331 20.1162 47.3727C20.1271 47.3973 20.1378 47.422 20.148 47.4469C20.1542 47.4621 20.1604 47.4775 20.1664 47.4928C20.1707 47.5039 20.1749 47.515 20.1791 47.5262L20.1855 47.5435C20.1942 47.5673 20.2025 47.5913 20.2105 47.6153C20.2243 47.6565 20.237 47.6981 20.2487 47.7398C20.2604 47.7817 20.2711 47.8238 20.2806 47.8661C20.2912 47.9147 20.3007 47.9635 20.3089 48.0125C20.3171 48.0616 20.3242 48.1108 20.33 48.1602C20.3321 48.1777 20.334 48.1953 20.3358 48.2129C20.3389 48.2448 20.3416 48.2767 20.3437 48.3087C20.3472 48.3583 20.3493 48.408 20.3503 48.4577C20.3507 48.4795 20.3509 48.5013 20.3509 48.523C20.3508 48.5403 20.3506 48.5575 20.3503 48.5747L20.3495 48.6068C20.3491 48.6236 20.3484 48.6404 20.3476 48.6572C20.3461 48.6901 20.3441 48.723 20.3415 48.7558C20.3375 48.8054 20.3324 48.8548 20.3261 48.9042C20.3229 48.9289 20.3194 48.9537 20.3156 48.9784C20.3118 49.0028 20.3078 49.0272 20.3034 49.0516C20.2947 49.1005 20.2848 49.1492 20.2736 49.1977C20.2625 49.2462 20.2502 49.2944 20.2367 49.3422C20.2313 49.3614 20.2258 49.3805 20.22 49.3995C20.2113 49.428 20.2023 49.4564 20.1928 49.4847C20.1769 49.5319 20.16 49.5786 20.1419 49.6249C20.1304 49.6542 20.1185 49.6834 20.1061 49.7123C20.099 49.7291 20.0917 49.7459 20.0842 49.7625C20.0739 49.7855 20.0633 49.8083 20.0524 49.831C20.0418 49.8531 20.0309 49.8751 20.0198 49.897C19.9972 49.9413 19.9736 49.9851 19.9489 50.0283C19.9242 50.0714 19.8985 50.114 19.8717 50.1558C19.398 50.8853 18.7146 51.2803 17.8779 51.4522C17.1546 51.5062 16.4838 51.366 15.8825 50.9466C15.2332 50.4936 14.7639 49.82 14.6358 49.033C14.628 48.9856 14.6215 48.9382 14.6162 48.8905C14.6142 48.8725 14.6123 48.8544 14.6106 48.8364C14.6079 48.8067 14.6057 48.7769 14.6038 48.7472C14.6009 48.6993 14.5992 48.6514 14.5986 48.6035C14.5981 48.5555 14.5987 48.5076 14.6006 48.4596C14.6024 48.4118 14.6054 48.364 14.6097 48.3162C14.6139 48.2684 14.6194 48.2208 14.626 48.1733C14.6326 48.1258 14.6404 48.0785 14.6493 48.0314C14.6583 47.9843 14.6685 47.9374 14.6798 47.8908C14.6911 47.8442 14.7036 47.7979 14.7172 47.752C14.7308 47.706 14.7456 47.6604 14.7615 47.6152C14.7774 47.5699 14.7944 47.5251 14.8126 47.4808C14.8307 47.4363 14.85 47.3924 14.8703 47.349C14.8907 47.3056 14.9121 47.2627 14.9345 47.2203C14.957 47.178 14.9805 47.1362 15.0051 47.095C15.0296 47.0538 15.0552 47.0133 15.0818 46.9734C15.0927 46.9569 15.1039 46.9405 15.1152 46.9243C15.1313 46.9012 15.1477 46.8783 15.1645 46.8557C15.642 46.2099 16.2859 45.889 17.0669 45.7692ZM33.0087 20.346H1.79447C1.76058 24.8981 1.75427 29.4503 1.77549 34.0027L1.75321 42.375L22.3818 42.4007L29.3284 42.4008C29.6693 42.4015 30.0123 42.3986 30.356 42.3957C31.2384 42.3883 32.1261 42.3808 32.9992 42.4337C33.0309 41.6433 33.0296 40.8493 33.0283 40.0567C33.0279 39.7809 33.0274 39.5054 33.0284 39.2302L33.0297 33.3699L33.0087 20.346Z" fill="url(#paint15_radial_52_468)"/>
<path fill-rule="evenodd" clip-rule="evenodd" d="M17.4879 22.4103C17.4776 22.4018 17.4662 22.3947 17.4554 22.3869C15.4005 25.1624 11.7382 30.1248 12.274 33.7193C12.4697 35.0323 13.2414 36.2135 14.3059 36.9944C14.3634 37.0369 14.4218 37.0781 14.481 37.1183C14.5147 37.1411 14.5486 37.1635 14.5828 37.1855C14.6087 37.2022 14.6347 37.2187 14.6609 37.2349C14.7217 37.2726 14.7832 37.309 14.8455 37.3442C14.9077 37.3794 14.9706 37.4134 15.0343 37.446C15.0979 37.4786 15.1621 37.51 15.227 37.54C15.2725 37.5611 15.3183 37.5815 15.3644 37.6013C15.384 37.6097 15.4037 37.618 15.4234 37.6262C15.472 37.6464 15.5208 37.6658 15.5699 37.6844C15.5876 37.6912 15.6053 37.6978 15.6231 37.7043C15.6902 37.729 15.7578 37.7524 15.8258 37.7743C15.8938 37.7963 15.9623 37.8169 16.0312 37.8361C16.1001 37.8553 16.1693 37.8731 16.2389 37.8895C16.3085 37.9059 16.3784 37.9208 16.4486 37.9344C16.5188 37.948 16.5893 37.9601 16.66 37.9708C16.7306 37.9816 16.8016 37.9909 16.8726 37.9987C16.8991 38.0016 16.9255 38.0043 16.952 38.0069C16.9967 38.0111 17.0414 38.0148 17.0862 38.0179C17.1575 38.0229 17.2289 38.0264 17.3004 38.0284C17.3343 38.0294 17.3681 38.0301 17.402 38.0304C17.4396 38.0308 17.4772 38.0308 17.5149 38.0304C19.145 37.8985 20.5081 37.3819 21.5979 36.1133C22.3738 35.2101 22.7755 34.0773 22.6824 32.8879C22.4546 29.9762 20.3594 26.5736 18.7909 24.1926C18.7567 24.1406 18.7162 24.0785 18.6709 24.0089C18.3538 23.5215 17.7998 22.6701 17.4879 22.4103ZM17.6861 31.8079C17.5906 31.7886 17.4903 31.7814 17.3934 31.7727C17.1951 31.8213 17.0347 31.8951 16.9282 32.0788C16.7077 32.4592 16.7569 33.7971 16.7873 34.6209C16.7941 34.8074 16.8 34.9675 16.8016 35.0843C16.3361 34.8498 15.9954 34.5733 15.6847 34.1531C15.5939 34.0303 15.5067 33.8633 15.4142 33.6862C15.1338 33.1497 14.8048 32.52 14.1812 32.7436C14.0366 32.7955 13.93 32.9133 13.8682 33.0515C13.741 33.3359 13.8074 33.6641 13.9267 33.9393C14.3757 34.9759 15.1226 35.912 16.2039 36.3196C16.6786 36.4985 17.1777 36.5556 17.6826 36.5534C18.7485 36.4645 19.6119 36.0796 20.3112 35.2557C20.6708 34.8319 21.3211 33.891 21.253 33.3106C21.2501 33.2856 21.2459 33.2608 21.2405 33.2362C21.235 33.2116 21.2283 33.1873 21.2204 33.1634C21.2125 33.1394 21.2033 33.116 21.193 33.093C21.1826 33.07 21.1711 33.0477 21.1584 33.0259C21.1458 33.0041 21.132 32.983 21.1172 32.9626C21.1023 32.9423 21.0865 32.9227 21.0697 32.9039C21.0528 32.8852 21.035 32.8674 21.0163 32.8504C21.0062 32.8412 20.9958 32.8324 20.9851 32.8238C20.9762 32.8165 20.9671 32.8095 20.9578 32.8027C20.8189 32.702 20.6557 32.6525 20.4847 32.6859C20.2221 32.7372 20.0184 32.9502 19.884 33.1699C19.8243 33.2676 19.7671 33.3637 19.7111 33.4579C19.3139 34.1256 18.9739 34.6972 18.1921 35.0471C18.1904 34.7869 18.1914 34.5252 18.1924 34.2629C18.1949 33.5832 18.1975 32.8996 18.1519 32.2273L18.1451 32.2168C18.0293 32.0366 17.9118 31.8537 17.6861 31.8079Z" fill="url(#paint16_radial_52_468)"/>
<defs>
<radialGradient id="paint0_radial_52_468" cx="0" cy="0" r="1" gradientUnits="userSpaceOnUse" gradientTransform="translate(10.4076 12.5539) rotate(46.812) scale(130.907 68.7873)">
<stop stop-color="white"/>
<stop offset="1" stop-color="white" stop-opacity="0"/>
</radialGradient>
<radialGradient id="paint1_radial_52_468" cx="0" cy="0" r="1" gradientUnits="userSpaceOnUse" gradientTransform="translate(10.4076 12.5539) rotate(46.812) scale(130.907 68.7873)">
<stop stop-color="white"/>
<stop offset="1" stop-color="white" stop-opacity="0"/>
</radialGradient>
<radialGradient id="paint2_radial_52_468" cx="0" cy="0" r="1" gradientUnits="userSpaceOnUse" gradientTransform="translate(10.4076 12.5539) rotate(46.812) scale(130.907 68.7873)">
<stop stop-color="white"/>
<stop offset="1" stop-color="white" stop-opacity="0"/>
</radialGradient>
<radialGradient id="paint3_radial_52_468" cx="0" cy="0" r="1" gradientUnits="userSpaceOnUse" gradientTransform="translate(10.4076 12.5539) rotate(46.812) scale(130.907 68.7873)">
<stop stop-color="white"/>
<stop offset="1" stop-color="white" stop-opacity="0"/>
</radialGradient>
<radialGradient id="paint4_radial_52_468" cx="0" cy="0" r="1" gradientUnits="userSpaceOnUse" gradientTransform="translate(10.4076 12.5539) rotate(46.812) scale(130.907 68.7873)">
<stop stop-color="white"/>
<stop offset="1" stop-color="white" stop-opacity="0"/>
</radialGradient>
<radialGradient id="paint5_radial_52_468" cx="0" cy="0" r="1" gradientUnits="userSpaceOnUse" gradientTransform="translate(10.4076 12.5539) rotate(46.812) scale(130.907 68.7873)">
<stop stop-color="white"/>
<stop offset="1" stop-color="white" stop-opacity="0"/>
</radialGradient>
<radialGradient id="paint6_radial_52_468" cx="0" cy="0" r="1" gradientUnits="userSpaceOnUse" gradientTransform="translate(10.4076 12.5539) rotate(46.812) scale(130.907 68.7873)">
<stop stop-color="white"/>
<stop offset="1" stop-color="white" stop-opacity="0"/>
</radialGradient>
<radialGradient id="paint7_radial_52_468" cx="0" cy="0" r="1" gradientUnits="userSpaceOnUse" gradientTransform="translate(10.4076 12.5539) rotate(46.812) scale(130.907 68.7873)">
<stop stop-color="white"/>
<stop offset="1" stop-color="white" stop-opacity="0"/>
</radialGradient>
<radialGradient id="paint8_radial_52_468" cx="0" cy="0" r="1" gradientUnits="userSpaceOnUse" gradientTransform="translate(10.4076 12.5539) rotate(46.812) scale(130.907 68.7873)">
<stop stop-color="white"/>
<stop offset="1" stop-color="white" stop-opacity="0"/>
</radialGradient>
<radialGradient id="paint9_radial_52_468" cx="0" cy="0" r="1" gradientUnits="userSpaceOnUse" gradientTransform="translate(10.4076 12.5539) rotate(46.812) scale(130.907 68.7873)">
<stop stop-color="white"/>
<stop offset="1" stop-color="white" stop-opacity="0"/>
</radialGradient>
<radialGradient id="paint10_radial_52_468" cx="0" cy="0" r="1" gradientUnits="userSpaceOnUse" gradientTransform="translate(10.4076 12.5539) rotate(46.812) scale(130.907 68.7873)">
<stop stop-color="white"/>
<stop offset="1" stop-color="white" stop-opacity="0"/>
</radialGradient>
<radialGradient id="paint11_radial_52_468" cx="0" cy="0" r="1" gradientUnits="userSpaceOnUse" gradientTransform="translate(10.4076 12.5539) rotate(46.812) scale(130.907 68.7873)">
<stop stop-color="white"/>
<stop offset="1" stop-color="white" stop-opacity="0"/>
</radialGradient>
<radialGradient id="paint12_radial_52_468" cx="0" cy="0" r="1" gradientUnits="userSpaceOnUse" gradientTransform="translate(10.4076 12.5539) rotate(46.812) scale(130.907 68.7873)">
<stop stop-color="white"/>
<stop offset="1" stop-color="white" stop-opacity="0"/>
</radialGradient>
<radialGradient id="paint13_radial_52_468" cx="0" cy="0" r="1" gradientUnits="userSpaceOnUse" gradientTransform="translate(10.4076 12.5539) rotate(46.812) scale(130.907 68.7873)">
<stop stop-color="white"/>
<stop offset="1" stop-color="white" stop-opacity="0"/>
</radialGradient>
<radialGradient id="paint14_radial_52_468" cx="0" cy="0" r="1" gradientUnits="userSpaceOnUse" gradientTransform="translate(10.4076 12.5539) rotate(46.812) scale(130.907 68.7873)">
<stop stop-color="white"/>
<stop offset="1" stop-color="white" stop-opacity="0"/>
</radialGradient>
<radialGradient id="paint15_radial_52_468" cx="0" cy="0" r="1" gradientUnits="userSpaceOnUse" gradientTransform="translate(10.4076 12.5539) rotate(46.812) scale(130.907 68.7873)">
<stop stop-color="white"/>
<stop offset="1" stop-color="white" stop-opacity="0"/>
</radialGradient>
<radialGradient id="paint16_radial_52_468" cx="0" cy="0" r="1" gradientUnits="userSpaceOnUse" gradientTransform="translate(10.4076 12.5539) rotate(46.812) scale(130.907 68.7873)">
<stop stop-color="white"/>
<stop offset="1" stop-color="white" stop-opacity="0"/>
</radialGradient>
</defs>
</svg>
