<svg width="52" height="65" viewBox="0 0 52 65" fill="none" xmlns="http://www.w3.org/2000/svg">
<path d="M38.9471 47.2279C39.0036 47.2286 39.0601 47.2285 39.1162 47.2358C39.2868 47.2581 39.493 47.3371 39.5829 47.4938C39.6626 47.6331 39.6411 47.8171 39.5847 47.9608C39.4296 48.356 37.8114 50.0093 37.3999 50.1891C37.2989 50.1865 37.194 50.1831 37.0942 50.1668C36.962 50.1451 36.8172 50.0648 36.7506 49.9449C36.6969 49.848 36.6949 49.7259 36.7195 49.6204C36.8329 49.135 38.5046 47.5141 38.9471 47.2279Z" fill="url(#paint0_radial_52_494)"/>
<path d="M33.535 42.8419C33.6218 42.8417 33.7179 42.8472 33.8022 42.8693C33.957 42.91 34.1298 43.0397 34.197 43.1867C34.255 43.3137 34.2428 43.4566 34.1878 43.5822C34.0568 43.8823 32.1604 45.8063 31.8371 45.9435C31.7436 45.9391 31.6442 45.9371 31.5529 45.9146C31.4105 45.8795 31.2531 45.7726 31.1804 45.6438C31.1152 45.5283 31.1125 45.3984 31.1474 45.2727C31.2299 44.9765 33.189 43.0249 33.535 42.8419Z" fill="url(#paint1_radial_52_494)"/>
<path d="M38.8297 42.4975C38.9008 42.4997 38.9681 42.5078 39.0371 42.5251C39.058 42.5303 39.0786 42.5365 39.0989 42.5437C39.1192 42.5509 39.139 42.5592 39.1585 42.5685C39.1779 42.5777 39.1968 42.5879 39.2153 42.5991C39.2337 42.6103 39.2515 42.6223 39.2687 42.6353C39.2859 42.6483 39.3024 42.6621 39.3182 42.6767C39.334 42.6913 39.349 42.7067 39.3632 42.7229C39.3775 42.7391 39.3909 42.7559 39.4034 42.7735C39.4159 42.7909 39.4275 42.809 39.4383 42.8277C39.5337 42.9952 39.5153 43.1511 39.4715 43.3308C39.1033 43.7772 38.6453 44.1653 38.2389 44.5791C37.3192 45.5343 36.385 46.4751 35.4362 47.4014C34.4958 48.3249 33.6129 49.3244 32.6537 50.2245C32.5694 50.3036 32.4884 50.3538 32.3812 50.3957C32.2882 50.3972 32.1861 50.4033 32.0952 50.3813C31.9546 50.3472 31.8021 50.2331 31.7265 50.1105C31.6415 49.9727 31.64 49.7956 31.6882 49.644C31.7212 49.54 31.7881 49.4604 31.8603 49.3812C32.695 48.4671 33.6253 47.6191 34.4939 46.735L36.9435 44.287C37.4511 43.7771 37.9365 43.2396 38.4688 42.755C38.5811 42.6528 38.6948 42.5684 38.8297 42.4975Z" fill="url(#paint2_radial_52_494)"/>
<path d="M2.52918 30.5527C2.78364 30.6443 3.1274 31.0843 3.31494 31.2812C4.183 32.1925 4.9097 33.2433 4.8815 34.5467C3.97466 35.0818 3.14401 35.8457 2.3914 36.5773L2.08932 36.8781C1.99767 36.8434 1.90793 36.8044 1.82009 36.761C1.73225 36.7176 1.64672 36.67 1.5635 36.6183C1.48029 36.5665 1.39979 36.5109 1.32201 36.4512C1.24423 36.3917 1.16952 36.3284 1.09789 36.2616C0.579459 35.777 0.317844 35.145 0.299631 34.4369C0.258556 32.8375 1.51077 31.6283 2.52918 30.5527Z" fill="url(#paint3_radial_52_494)"/>
<path d="M10.5696 17.5988C10.5796 17.6045 10.5901 17.6095 10.5997 17.616C11.4297 18.1809 12.6472 19.8208 12.8059 20.847C12.8989 21.4483 12.7715 22.0909 12.4047 22.5825C11.9681 23.1676 11.3351 23.4606 10.629 23.5654C10.5708 23.5661 10.5126 23.5658 10.4543 23.5644C9.91382 23.5504 9.36384 23.2377 9.00118 22.8459C8.55316 22.3616 8.28652 21.6828 8.31921 21.021C8.38825 19.6229 9.59452 18.4761 10.5696 17.5988Z" fill="url(#paint4_radial_52_494)"/>
<path d="M2.42472 21.6376C2.53636 21.6838 2.62324 21.7556 2.71689 21.8299C3.62374 22.5505 4.58455 23.8659 4.70785 25.0496C4.71166 25.0886 4.71453 25.1277 4.71646 25.1669C4.71839 25.206 4.71933 25.2452 4.71928 25.2844C4.71923 25.3236 4.71824 25.3627 4.71631 25.4018C4.71432 25.441 4.7114 25.48 4.70754 25.519C4.70363 25.5581 4.69878 25.5969 4.69299 25.6357C4.68719 25.6745 4.68044 25.7131 4.67272 25.7515C4.66504 25.7899 4.65641 25.8281 4.64681 25.8661C4.6372 25.9041 4.62669 25.9419 4.61526 25.9794C4.60378 26.0168 4.5914 26.054 4.57814 26.0908C4.56483 26.1277 4.55063 26.1642 4.53555 26.2004C4.52046 26.2366 4.50448 26.2723 4.48761 26.3077C4.4708 26.3431 4.45309 26.378 4.4345 26.4126C4.4159 26.4471 4.3965 26.4811 4.37628 26.5146C4.356 26.5482 4.33492 26.5812 4.31302 26.6137C4.29113 26.6462 4.26844 26.6781 4.24497 26.7095C4.22155 26.7409 4.19734 26.7717 4.17235 26.8019C3.76571 27.2882 3.18868 27.5126 2.57347 27.5699C2.49506 27.5708 2.41748 27.5699 2.33907 27.565C1.72729 27.5271 1.19918 27.2339 0.802832 26.7738C0.363887 26.2643 0.17383 25.6303 0.230375 24.9633C0.335692 23.7213 1.50286 22.407 2.42472 21.6376Z" fill="url(#paint5_radial_52_494)"/>
<path d="M10.6044 26.3953C10.666 26.4171 10.6505 26.4048 10.6966 26.4453C11.6206 27.256 12.7821 28.6638 12.857 29.9395C12.8956 30.5989 12.6304 31.259 12.1884 31.7428C12.1639 31.7701 12.1387 31.7967 12.1129 31.8227C12.0871 31.8487 12.0607 31.8741 12.0337 31.8988C12.0066 31.9235 11.979 31.9475 11.9507 31.9709C11.9225 31.9943 11.8938 32.0169 11.8644 32.0389C11.8351 32.0608 11.8052 32.082 11.7749 32.1024C11.7445 32.1229 11.7136 32.1426 11.6823 32.1616C11.6509 32.1806 11.6191 32.1987 11.5869 32.2161C11.5546 32.2335 11.522 32.2501 11.4889 32.2659C11.4559 32.2816 11.4224 32.2966 11.3886 32.3107C11.3549 32.3249 11.3207 32.3382 11.2863 32.3507C11.2519 32.3631 11.2171 32.3747 11.1821 32.3855C11.1471 32.3962 11.1119 32.4061 11.0764 32.4152C11.0408 32.4242 11.0052 32.4323 10.9693 32.4396C10.9334 32.4468 10.8973 32.4532 10.8611 32.4587C10.8249 32.4642 10.7886 32.4688 10.7521 32.4725C10.7157 32.4762 10.6792 32.479 10.6426 32.481C9.9982 32.4802 9.48198 32.2812 9.02566 31.8208C8.5624 31.3534 8.27839 30.7423 8.29134 30.0774C8.3206 28.5698 9.58783 27.3594 10.6044 26.3953Z" fill="url(#paint6_radial_52_494)"/>
<path d="M44.9978 58.1288L48.6183 58.1296L48.6147 64.076L44.9789 64.074C44.9452 63.2749 44.9796 62.4674 44.9878 61.6677L44.9978 58.1288Z" fill="url(#paint7_radial_52_494)"/>
<path d="M22.3354 58.067C23.566 58.0383 24.8035 58.0691 26.0343 58.0931C26.0348 60.0794 26.0797 62.0739 26.0311 64.0591C24.8001 64.0945 23.5634 64.0736 22.3317 64.0761L22.3354 58.067Z" fill="url(#paint8_radial_52_494)"/>
<path d="M27.5855 8.28447C28.7169 8.24566 29.8609 8.28226 30.993 8.29583L31.0014 12.8587C30.1894 12.88 29.3712 12.86 28.5586 12.8583L25.078 12.8647L25.1014 11.384C25.1184 10.5003 25.1392 9.72752 25.7645 9.03397C26.2465 8.49931 26.8923 8.32678 27.5855 8.28447Z" fill="url(#paint9_radial_52_494)"/>
<path d="M40.0159 8.26968L43.4842 8.26305C44.1882 8.26618 44.8083 8.44572 45.3118 8.9633C46.0228 9.69421 46.0422 10.554 46.0377 11.513L46.0286 12.8701L40.0128 12.8539L40.0159 8.26968Z" fill="url(#paint10_radial_52_494)"/>
<path d="M21.5862 11.6417L23.8348 11.62L23.8556 12.841C23.0138 12.8596 22.1699 12.8487 21.3277 12.8512C20.8237 12.8528 20.2656 12.8153 19.7718 12.9221C19.4025 13.002 19.0401 13.164 18.7657 13.4281C18.4376 13.7439 18.2335 14.1861 18.1745 14.6357C18.0823 15.3388 18.1547 16.1126 18.162 16.822L18.1729 20.4447L18.1541 34.0179C18.1531 34.4172 18.1495 34.8165 18.1433 35.2157C17.763 34.9767 17.4001 34.6758 16.9947 34.4838C16.994 33.9154 16.9887 33.3471 16.9787 32.7787C16.9533 28.5653 16.9571 24.3518 16.9901 20.1382L16.9713 16.4154C16.9665 15.6703 16.9027 14.8686 17.0202 14.1338C17.1105 13.569 17.4326 13.0187 17.8309 12.6161C18.8986 11.5366 20.1864 11.6522 21.5862 11.6417Z" fill="url(#paint11_radial_52_494)"/>
<path d="M17.837 40.1036C17.98 40.0959 18.1328 40.0738 18.2642 40.1437C18.3705 40.2002 18.4297 40.2731 18.4574 40.3927C18.4975 40.5657 18.4107 40.7662 18.3168 40.9065C17.8843 41.5528 17.0552 42.3509 16.5246 42.9694C14.9807 44.7689 13.3709 46.5015 11.754 48.2354C11.061 48.9783 10.3996 49.7887 9.66035 50.4828C9.52189 50.6128 9.31057 50.8113 9.11762 50.8331C8.91643 50.8559 5.9486 48.0103 5.59317 47.6756C5.32386 47.4291 4.44368 46.7333 4.35757 46.4322C4.57224 46.0275 5.54006 45.0625 5.92901 44.8091C6.57417 44.7788 8.23927 47.1204 8.93 47.2894C9.03699 47.3155 9.11152 47.2962 9.2035 47.2398C9.77961 46.8875 10.4956 46.1534 11.034 45.698C12.5246 44.4375 14.0422 43.2123 15.546 41.9681C16.1577 41.4621 17.2186 40.4764 17.837 40.1036Z" fill="url(#paint12_radial_52_494)"/>
<path d="M28.6163 53.4867C31.2824 53.463 33.9485 53.4605 36.6146 53.4791C38.5342 53.4719 40.4537 53.4785 42.3731 53.499C42.3775 54.6679 42.4014 55.8475 42.3491 57.015C40.7826 57.051 39.209 57.0217 37.6417 57.0227L28.6037 57.0304C28.6008 55.8491 28.605 54.6679 28.6163 53.4867Z" fill="url(#paint13_radial_52_494)"/>
<path d="M34.0094 0.0159942L34.8092 0.0100549L36.8332 0.0151781C37.2544 0.0172823 37.7117 -0.0124733 38.1269 0.0582155C38.3051 0.088551 38.4559 0.127562 38.5839 0.261209C38.7003 0.382673 38.791 0.533771 38.8161 0.702091C38.8842 1.15879 38.8493 1.65564 38.8481 2.11719L38.847 4.38728L38.8281 12.8572L36.9064 12.8583L32.1562 12.8689L32.1576 2.31534C32.1593 1.83419 32.1367 1.33529 32.1842 0.856277C32.2053 0.642808 32.2216 0.462976 32.3775 0.302584C32.7642 -0.0952078 33.5013 0.012167 34.0094 0.0159942Z" fill="url(#paint14_radial_52_494)"/>
<path d="M10.159 34.0144C10.2403 34.0029 10.3249 34.0036 10.4069 34.0006C13.2816 33.8976 16.2697 34.9258 18.3835 36.9102C20.3199 38.728 21.798 41.7013 21.8864 44.3936C22.4551 44.3725 23.9343 44.2097 24.354 44.5803C24.509 44.7173 24.5811 44.9203 24.581 45.1243C24.5808 45.2775 24.5302 45.4248 24.4165 45.5309C24.0194 45.9014 22.4708 45.7694 21.8828 45.7685C21.853 46.4668 21.6965 47.2077 21.5264 47.886C21.0304 49.8649 19.7875 51.8593 18.2803 53.2267C17.5872 53.8556 16.7959 54.3924 15.9934 54.8709C15.6451 54.4586 15.2622 54.0784 14.8845 53.6935C17.2293 52.4748 18.6849 51.0868 19.7167 48.6073C20.6291 46.4147 20.5479 43.6158 19.6357 41.4334C18.6476 39.0696 16.8443 37.2338 14.4641 36.2595C12.2117 35.3373 9.52615 35.2427 7.2639 36.2117C7.19349 36.2416 7.12346 36.2722 7.05381 36.3037C6.9841 36.3353 6.91483 36.3677 6.84599 36.401C6.7771 36.4343 6.70864 36.4684 6.64062 36.5033C6.57259 36.5382 6.505 36.574 6.43783 36.6106C6.37067 36.6472 6.30399 36.6846 6.23779 36.7229C6.17155 36.7611 6.10578 36.8002 6.0405 36.84C5.97521 36.8799 5.91044 36.9206 5.84617 36.9621C5.78191 37.0035 5.71817 37.0457 5.65497 37.0888C5.59172 37.1318 5.52903 37.1756 5.4669 37.2202C5.40471 37.2648 5.34311 37.3101 5.2821 37.3562C5.22108 37.4023 5.16062 37.4491 5.10073 37.4967C5.04083 37.5442 4.98154 37.5925 4.92286 37.6416C4.86413 37.6906 4.80604 37.7404 4.74858 37.7909C4.69112 37.8413 4.63427 37.8925 4.57803 37.9444C4.52184 37.9963 4.46629 38.0488 4.41137 38.1021C4.35645 38.1553 4.30219 38.2092 4.24859 38.2638C4.195 38.3184 4.14208 38.3736 4.08986 38.4294C4.03763 38.4853 3.98609 38.5418 3.93524 38.599C3.88438 38.6561 3.83424 38.7139 3.78481 38.7722C3.73537 38.8306 3.68668 38.8896 3.63872 38.9492C3.59076 39.0088 3.54351 39.069 3.49698 39.1297C3.45049 39.1904 3.40477 39.2517 3.35981 39.3136C3.31479 39.3754 3.27057 39.4379 3.22713 39.5008C3.18369 39.5638 3.14102 39.6273 3.09911 39.6913C3.05724 39.7553 3.01617 39.8198 2.97588 39.8848C2.93554 39.9498 2.89604 40.0153 2.85738 40.0813C2.81867 40.1473 2.78079 40.2138 2.74376 40.2807C2.70667 40.3476 2.67045 40.415 2.63509 40.4828C2.59968 40.5506 2.56511 40.6189 2.53137 40.6876C2.49769 40.7562 2.46482 40.8253 2.43276 40.8948C2.40076 40.9643 2.36961 41.0341 2.33933 41.1044C2.309 41.1746 2.27956 41.2452 2.25101 41.3162C2.20818 41.4235 2.16724 41.5316 2.12817 41.6403C2.0891 41.7491 2.05196 41.8585 2.01676 41.9685C1.9815 42.0786 1.94817 42.1893 1.91677 42.3005C1.88543 42.4117 1.85601 42.5234 1.82853 42.6357C1.80104 42.748 1.77551 42.8607 1.75194 42.9738C1.72842 43.087 1.70685 43.2005 1.68724 43.3144C1.66768 43.4282 1.6501 43.5424 1.63451 43.657C1.61886 43.7715 1.60524 43.8863 1.59366 44.0012C1.58208 44.1162 1.5725 44.2313 1.56493 44.3467C1.55731 44.462 1.55172 44.5774 1.54817 44.6929C1.54461 44.8085 1.54309 44.924 1.54359 45.0396C1.54405 45.1551 1.54654 45.2706 1.55106 45.3861C1.55558 45.5016 1.56211 45.617 1.57065 45.7322C1.57918 45.8475 1.58972 45.9626 1.60227 46.0774C1.61482 46.1924 1.62935 46.307 1.64586 46.4213C1.66242 46.5357 1.68097 46.6498 1.70149 46.7635C2.13045 49.0978 3.56876 51.3754 5.52657 52.7239C7.4276 54.0332 9.60533 54.6706 11.9211 54.422C12.4802 54.362 13.021 54.2158 13.5726 54.1124C13.8583 54.3024 14.1064 54.5557 14.3533 54.7927C15.0616 55.4724 16.0364 56.6239 16.7944 57.1544C16.8978 57.1668 16.8969 57.1701 16.9833 57.1129C17.1239 56.6907 17.0019 55.9846 16.9964 55.5327C17.3979 55.2606 17.7955 54.9896 18.2146 54.7447C18.2204 55.6226 18.4034 57.7235 17.7938 58.359C17.5645 58.598 17.2037 58.7146 16.8781 58.7142C16.6091 58.7138 16.3559 58.6299 16.1269 58.4927C15.6638 58.2153 15.2865 57.7626 14.903 57.3883C14.326 56.8299 13.7522 56.2681 13.1818 55.703C12.6899 55.7888 12.2062 55.8825 11.7078 55.9274C11.622 55.9342 11.5362 55.9401 11.4503 55.9449C11.3644 55.9497 11.2784 55.9535 11.1924 55.9563C11.1064 55.959 11.0204 55.9607 10.9344 55.9613C10.8483 55.9619 10.7623 55.9616 10.6762 55.9601C10.5902 55.9587 10.5042 55.9562 10.4182 55.9527C10.3323 55.9492 10.2463 55.9447 10.1605 55.9391C10.0746 55.9335 9.98884 55.9269 9.90314 55.9192C9.81743 55.9115 9.73186 55.9028 9.6464 55.8931C9.5609 55.8834 9.47552 55.8726 9.39028 55.8608C9.30508 55.849 9.22001 55.8362 9.13506 55.8223C9.05017 55.8085 8.96543 55.7936 8.88084 55.7777C8.7963 55.7618 8.71194 55.7449 8.62776 55.7269C8.54363 55.7089 8.45973 55.6899 8.37605 55.67C8.29233 55.65 8.20888 55.629 8.12572 55.607C8.0425 55.585 7.95959 55.562 7.87698 55.538C7.79437 55.514 7.71205 55.489 7.63 55.4631C7.548 55.437 7.46631 55.41 7.38492 55.3821C7.30353 55.3541 7.2225 55.3251 7.14182 55.2952C7.06115 55.2652 6.98085 55.2343 6.90094 55.2025C6.82102 55.1706 6.74149 55.1378 6.66234 55.104C6.58324 55.0702 6.50454 55.0354 6.42625 54.9998C6.34796 54.964 6.27011 54.9274 6.19268 54.8898C6.11526 54.8522 6.03831 54.8137 5.96185 54.7742C5.88539 54.7348 5.80942 54.6944 5.73392 54.6531C5.65843 54.6118 5.58344 54.5696 5.50896 54.5265C5.43448 54.4834 5.36054 54.4395 5.28713 54.3946C5.21371 54.3497 5.14084 54.3039 5.06849 54.2573C4.9962 54.2106 4.92446 54.1631 4.85329 54.1147C4.78216 54.0663 4.7116 54.0171 4.64159 53.9669C4.57163 53.9168 4.50228 53.8659 4.43355 53.8142C4.36481 53.7624 4.29671 53.7098 4.22924 53.6564C4.16177 53.6029 4.09496 53.5487 4.02882 53.4937C3.95769 53.4343 3.8873 53.3741 3.81765 53.313C3.748 53.252 3.67913 53.1901 3.61106 53.1273C3.54293 53.0646 3.47559 53.0009 3.40903 52.9365C3.34253 52.8721 3.27682 52.8068 3.21189 52.7407C3.14696 52.6746 3.08287 52.6078 3.01962 52.5401C2.95637 52.4725 2.89396 52.404 2.83239 52.3348C2.77081 52.2656 2.71013 52.1957 2.65033 52.1249C2.59048 52.0542 2.53152 51.9828 2.47346 51.9106C2.41539 51.8385 2.35823 51.7656 2.30199 51.692C2.2457 51.6184 2.19035 51.5441 2.13594 51.4691C2.08153 51.3942 2.02806 51.3185 1.97553 51.2422C1.923 51.166 1.8714 51.089 1.82075 51.0115C1.7701 50.9339 1.72044 50.8557 1.67177 50.777C1.62305 50.6981 1.57532 50.6187 1.52858 50.5388C1.48184 50.4588 1.43609 50.3782 1.39133 50.2971C1.34663 50.216 1.30291 50.1343 1.26018 50.0522C1.21746 49.97 1.17577 49.8872 1.13513 49.804C1.09444 49.7208 1.05478 49.6371 1.01617 49.5529C0.977612 49.4686 0.940069 49.3839 0.903541 49.2988C0.867063 49.2136 0.831627 49.1281 0.797233 49.0421C0.76289 48.956 0.729589 48.8696 0.697328 48.7827C0.665119 48.6959 0.633976 48.6087 0.6039 48.521C0.573824 48.4334 0.544814 48.3454 0.516872 48.257C0.488981 48.1687 0.462207 48.08 0.436551 47.991C0.410844 47.902 0.38623 47.8127 0.362708 47.7231C0.339237 47.6335 0.316883 47.5436 0.295647 47.4534C0.27436 47.3632 0.254216 47.2728 0.235216 47.1821C0.216164 47.0915 0.198256 47.0006 0.18149 46.9095C0.164725 46.8184 0.149078 46.7271 0.134548 46.6356C0.120069 46.5441 0.106707 46.4524 0.0944634 46.3606C0.0822197 46.2687 0.0711193 46.1768 0.0611618 46.0847C0.0512042 45.9926 0.0423897 45.9004 0.0347183 45.808C-0.207616 42.887 0.832898 39.9614 2.71069 37.7364C4.60158 35.4958 7.26642 34.2618 10.159 34.0144Z" fill="url(#paint15_radial_52_494)"/>
<path d="M20.0003 14.1147L20.1004 14.1129C22.5052 14.0743 24.9152 14.1031 27.3204 14.104L39.4755 14.1048L46.7436 14.1128C47.9992 14.112 49.3688 14.0423 50.6122 14.1197C50.8106 14.132 51.0372 14.2036 51.1778 14.3515C51.3095 14.4901 51.384 14.6788 51.4201 14.8641C51.4872 15.2077 51.4454 15.6065 51.4443 15.9569L51.4367 18.0889L50.7377 18.0978L31.9144 18.0979C27.7181 18.0846 23.5219 18.0967 19.3257 18.1342C19.3248 17.4589 19.2256 14.9335 19.4689 14.4879C19.5819 14.281 19.7817 14.176 20.0003 14.1147Z" fill="url(#paint16_radial_52_494)"/>
<path fill-rule="evenodd" clip-rule="evenodd" d="M22.1136 19.2521C21.1911 19.2452 20.2682 19.2383 19.3471 19.2548C19.3184 24.9314 19.3212 30.6082 19.3553 36.2851C19.4432 36.3702 19.5297 36.4567 19.6149 36.5445C19.7001 36.6323 19.7838 36.7215 19.8662 36.8119C19.9486 36.9024 20.0295 36.9941 20.109 37.0871C20.1885 37.18 20.2666 37.2742 20.3432 37.3697C20.4198 37.4651 20.4949 37.5617 20.5684 37.6594C20.6419 37.7572 20.7139 37.8561 20.7845 37.9561C20.8549 38.0561 20.9238 38.1572 20.9911 38.2594C21.0584 38.3616 21.1241 38.4648 21.1882 38.569C21.2523 38.6732 21.3148 38.7784 21.3756 38.8846C21.4364 38.9907 21.4955 39.0978 21.553 39.2059C21.5875 39.2708 21.6214 39.336 21.6547 39.4015C21.6768 39.4451 21.6987 39.4887 21.7203 39.5325C21.7743 39.6423 21.8267 39.7528 21.8773 39.8643C21.9279 39.9757 21.9768 40.0878 22.0238 40.2008C22.071 40.3136 22.1164 40.4273 22.1599 40.5416C22.2035 40.656 22.2452 40.771 22.2852 40.8866C22.3252 41.0022 22.3634 41.1185 22.3997 41.2353C22.5329 41.6698 22.6339 42.1117 22.7349 42.5538C22.7877 42.785 22.8406 43.0163 22.8981 43.2466C22.992 43.2445 23.086 43.2412 23.1797 43.2379C23.8987 43.2126 24.6038 43.1878 25.1789 43.7299C25.5373 44.0678 25.6997 44.5266 25.7 45.0133C25.7003 45.5441 25.513 46.0332 25.125 46.4006C24.5875 46.9096 23.9479 46.8985 23.2823 46.8869C23.1566 46.8847 23.0299 46.8825 22.9028 46.8838C22.3354 49.5803 21.3065 51.7631 19.3603 53.7546C19.3594 53.8971 19.3543 54.1082 19.3482 54.3537C19.3287 55.1507 19.3002 56.3105 19.3809 56.6658C19.4 56.7495 19.4502 56.8171 19.5098 56.8766C19.6012 56.9677 19.694 56.997 19.8187 57.0094C20.4026 57.067 21.1381 57.0508 21.8238 57.0356C22.1168 57.0291 22.4007 57.0228 22.6597 57.0226C23.1389 57.0222 23.6191 57.0252 24.0998 57.0283C25.2276 57.0355 26.3577 57.0428 27.481 57.0051L27.496 45.3085C27.4972 44.6189 27.4902 43.9269 27.4833 43.2344C27.4707 41.9722 27.4581 40.7081 27.4944 39.4525L37.5865 39.464C38.1911 39.4638 38.7962 39.461 39.4014 39.4581C40.7717 39.4516 42.1428 39.4451 43.5112 39.4696L43.5131 40.9938L43.5128 51.3797C43.5127 51.957 43.5104 52.5346 43.5081 53.1123C43.5031 54.4147 43.498 55.7176 43.5168 57.0189L48.3442 57.0257C48.5462 57.0258 48.7642 57.0319 48.9881 57.0382C49.5284 57.0533 50.1035 57.0694 50.5734 57.0044C50.5986 57.0009 50.6236 56.9964 50.6484 56.9909C50.6626 56.9878 50.6767 56.9843 50.6907 56.9805C50.7012 56.9777 50.7115 56.9747 50.7219 56.9715C50.7462 56.9641 50.7701 56.9557 50.7937 56.9463C50.8026 56.9427 50.8115 56.939 50.8203 56.9352C50.8347 56.9289 50.849 56.9223 50.8632 56.9152C50.8859 56.904 50.9082 56.8919 50.9299 56.8788C50.9517 56.8657 50.9729 56.8518 50.9936 56.837C51.0142 56.8223 51.0342 56.8067 51.0536 56.7904C51.073 56.7739 51.0917 56.7568 51.1097 56.7389C51.2744 56.5765 51.3808 56.3742 51.3998 56.1433C51.4296 55.7822 51.4244 55.412 51.4193 55.0451C51.4174 54.9101 51.4155 54.7755 51.4154 54.642L51.4161 52.0638L51.4087 43.3363L51.432 26.1929C51.4312 25.5633 51.4318 24.9335 51.4324 24.3038C51.4338 22.6184 51.4353 20.9326 51.4123 19.2479L32.4901 19.269L23.5602 19.2596C23.0783 19.2593 22.596 19.2557 22.1136 19.2521ZM35.4473 21.6922C35.351 21.6936 35.2549 21.697 35.1588 21.7026C33.3249 21.8247 31.5976 22.5899 30.3759 23.9907C30.3407 24.0319 30.3059 24.0735 30.2717 24.1156C30.2374 24.1576 30.2037 24.2001 30.1705 24.243C30.1374 24.2859 30.1047 24.3292 30.0726 24.3729C30.0405 24.4167 30.0089 24.4608 29.9779 24.5052C29.9469 24.5497 29.9164 24.5946 29.8865 24.6398C29.8565 24.685 29.8271 24.7305 29.7983 24.7765C29.7695 24.8225 29.7412 24.8688 29.7136 24.9154C29.686 24.962 29.6588 25.009 29.6323 25.0564C29.6058 25.1037 29.5799 25.1513 29.5545 25.1992C29.5292 25.2472 29.5044 25.2955 29.4803 25.344C29.4561 25.3926 29.4326 25.4414 29.4096 25.4905C29.3867 25.5397 29.3643 25.5891 29.3426 25.6388C29.3209 25.6885 29.2997 25.7385 29.2792 25.7887C29.2587 25.8389 29.2388 25.8893 29.2195 25.94C29.2003 25.9908 29.1816 26.0417 29.1636 26.0928C29.1456 26.144 29.1282 26.1954 29.1114 26.247C29.0947 26.2986 29.0786 26.3504 29.0631 26.4024C29.0477 26.4543 29.0328 26.5064 29.0186 26.5588C29.0044 26.6112 28.9908 26.6637 28.9779 26.7164C28.9699 26.7492 28.9621 26.7821 28.9546 26.815C28.9501 26.8349 28.9456 26.8549 28.9412 26.8749C28.9296 26.9279 28.9187 26.981 28.9083 27.0342C28.898 27.0875 28.8884 27.1409 28.8795 27.1944C28.8705 27.2479 28.8622 27.3015 28.8545 27.3552C28.8468 27.4089 28.8398 27.4626 28.8334 27.5165C28.8271 27.5704 28.8215 27.6243 28.8165 27.6784C28.8114 27.7324 28.8071 27.7864 28.8034 27.8405C28.7997 27.8947 28.7967 27.9488 28.7944 28.003C28.792 28.0572 28.7903 28.1114 28.7893 28.1656C28.7883 28.2198 28.788 28.2741 28.7883 28.3283C28.7886 28.3826 28.7896 28.4368 28.7912 28.491C28.7928 28.5452 28.7952 28.5994 28.7982 28.6536C28.8012 28.7078 28.8048 28.7619 28.8091 28.8159C28.8135 28.8705 28.8186 28.9249 28.8242 28.9793C28.8271 29.0067 28.8302 29.034 28.8334 29.0613C28.8366 29.0883 28.8399 29.1153 28.8433 29.1422C28.8472 29.1719 28.8513 29.2016 28.8555 29.2312C28.8591 29.2557 28.8627 29.2802 28.8665 29.3046C28.8749 29.3587 28.8839 29.4126 28.8936 29.4665C28.8994 29.4981 28.9053 29.5297 28.9115 29.5612C28.9158 29.5833 28.9203 29.6055 28.9248 29.6276C28.9358 29.6811 28.9476 29.7345 28.96 29.7878C28.9723 29.8411 28.9853 29.8942 28.999 29.9472C29.0061 29.9748 29.0134 30.0024 29.0209 30.0299C29.0277 30.0551 29.0347 30.0803 29.0419 30.1055C29.0568 30.1581 29.0725 30.2105 29.0887 30.2627C29.105 30.3149 29.1219 30.3669 29.1395 30.4187C29.157 30.4706 29.1752 30.5221 29.194 30.5735C29.2128 30.6248 29.2323 30.6759 29.2523 30.7268C29.2724 30.7777 29.2931 30.8283 29.3144 30.8786C29.3358 30.929 29.3578 30.9791 29.3803 31.0289C29.4029 31.0787 29.426 31.1283 29.4498 31.1775C29.4736 31.2268 29.498 31.2757 29.523 31.3244C29.5479 31.373 29.5735 31.4213 29.5997 31.4693C29.6259 31.5173 29.6527 31.565 29.68 31.6124C29.7074 31.6597 29.7353 31.7067 29.7638 31.7533C29.7923 31.8 29.8214 31.8463 29.8511 31.8923C29.8808 31.9382 29.911 31.9838 29.9418 32.0289C29.9563 32.0503 29.971 32.0715 29.9858 32.0927C30.0023 32.1163 30.019 32.1399 30.0358 32.1634C30.0677 32.2078 30.1001 32.2518 30.1331 32.2955C30.1661 32.3391 30.1996 32.3823 30.2336 32.4251C30.2527 32.449 30.2718 32.4727 30.2911 32.4963C30.3064 32.515 30.3218 32.5337 30.3373 32.5522C30.3724 32.5941 30.408 32.6356 30.4441 32.6767C30.4803 32.7177 30.5168 32.7584 30.5539 32.7985C30.5911 32.8387 30.6287 32.8783 30.6667 32.9176C30.7048 32.9568 30.7434 32.9956 30.7825 33.0338C30.8215 33.0721 30.861 33.1099 30.901 33.1472C30.941 33.1845 30.9814 33.2213 31.0223 33.2576C31.0632 33.2939 31.1045 33.3298 31.1463 33.365C32.423 34.4538 34.2409 35.0094 35.9062 34.9147C37.8795 34.6589 39.5741 33.8696 40.8067 32.2604C41.9113 30.8183 42.3396 29.129 42.0862 27.3321C41.8458 25.6288 40.8722 24.0324 39.4918 23.0066C39.4147 22.9489 39.3364 22.8929 39.2569 22.8387C39.1774 22.7845 39.0967 22.732 39.0149 22.6813C38.9331 22.6306 38.8503 22.5817 38.7663 22.5346C38.6824 22.4875 38.5975 22.4423 38.5115 22.399C38.4705 22.3783 38.4292 22.358 38.3878 22.3381C38.3425 22.3164 38.2969 22.2952 38.251 22.2745C38.1633 22.235 38.0747 22.1974 37.9854 22.1617C37.896 22.126 37.8059 22.0923 37.7151 22.0606C37.6242 22.0288 37.5327 21.9991 37.4405 21.9713C37.3484 21.9436 37.2556 21.9179 37.1623 21.8942C37.0691 21.8706 36.9754 21.849 36.8811 21.8294C36.837 21.8202 36.7928 21.8115 36.7485 21.8032C36.6982 21.7939 36.6478 21.7851 36.5973 21.7769C36.5235 21.7649 36.4496 21.7541 36.3755 21.7447C36.3541 21.742 36.3328 21.7393 36.3114 21.7368C36.2159 21.7256 36.1201 21.7165 36.0241 21.7094C35.9282 21.7023 35.8321 21.6973 35.7359 21.6945C35.6397 21.6916 35.5435 21.6909 35.4473 21.6922Z" fill="url(#paint17_radial_52_494)"/>
<path fill-rule="evenodd" clip-rule="evenodd" d="M38.7326 23.9093C37.6966 23.1477 36.3358 22.7145 35.0473 22.8449C33.4895 23.0132 32.0514 23.7585 31.0643 24.9883C30.1722 26.0995 29.8078 27.5331 29.9754 28.9414C30.1469 30.3807 30.8859 31.7594 32.0342 32.6522C33.1993 33.5581 34.5239 33.8302 35.97 33.7667C37.6111 33.5333 39.0166 32.8073 40.0174 31.4609C40.8649 30.3207 41.1644 28.8439 40.9542 27.448C40.7373 26.0073 39.8964 24.7647 38.7326 23.9093ZM36.0225 24.876C35.4669 24.4938 34.6664 24.1629 33.9812 24.205C33.9154 24.3018 33.8612 24.3653 33.8689 24.4887C33.9172 24.5927 33.9876 24.6749 34.0589 24.7581C34.0981 24.8038 34.1376 24.8499 34.1738 24.9001C34.5664 25.4439 34.7238 25.9987 34.4851 26.6468C34.4011 26.875 34.2901 27.0931 34.1791 27.3113C34.0794 27.5073 33.9796 27.7034 33.8992 27.9071L33.8684 27.8676C33.6403 27.5697 33.6048 27.1241 33.5751 26.7512C33.5526 26.468 33.5334 26.2266 33.4356 26.1238C33.1391 26.179 32.7049 26.7514 32.5375 26.9923C32.5105 27.0304 32.4845 27.0691 32.4595 27.1085C32.4473 27.1277 32.4355 27.1469 32.4238 27.1664C32.4114 27.1869 32.3993 27.2077 32.3875 27.2286C32.3645 27.2692 32.3426 27.3103 32.3216 27.352C32.3007 27.3938 32.2809 27.436 32.2621 27.4787C32.2434 27.5214 32.2257 27.5646 32.2091 27.6083C32.1925 27.6519 32.177 27.6959 32.1626 27.7403C32.1483 27.7847 32.1351 27.8294 32.1229 27.8745C32.1108 27.9196 32.0999 27.9649 32.0901 28.0105C32.0803 28.0562 32.0717 28.102 32.0642 28.1481C32.0567 28.1942 32.0503 28.2404 32.0452 28.2867C32.04 28.3331 32.0361 28.3796 32.0333 28.4262C32.0305 28.4728 32.0288 28.5194 32.0284 28.5661C32.028 28.6127 32.0287 28.6594 32.0306 28.7061C32.0318 28.7359 32.0335 28.7658 32.0358 28.7957C32.037 28.8123 32.0384 28.829 32.0399 28.8457C32.0442 28.8922 32.0496 28.9385 32.0562 28.9847C32.06 29.0111 32.0641 29.0374 32.0686 29.0636C32.0721 29.0833 32.0757 29.103 32.0795 29.1227C32.2371 29.9477 32.6669 30.6779 33.3665 31.1511C33.9578 31.5511 34.597 31.7659 35.3048 31.8297C36.3403 31.8214 37.3183 31.4879 38.057 30.7377C38.6341 30.1518 38.9834 29.2701 38.9715 28.4482C38.9614 27.7442 38.6731 26.968 38.1552 26.4788C38.0947 26.4217 38.0294 26.3699 37.9637 26.3189C37.7995 26.6313 37.6358 26.9412 37.4492 27.2413C37.2647 26.2356 36.8838 25.4684 36.0225 24.876Z" fill="url(#paint18_radial_52_494)"/>
<path d="M35.3907 27.5765C35.4371 27.5809 35.4819 27.595 35.5271 27.6063C35.6865 27.7855 35.6867 28.0442 35.8282 28.2358C36.2204 28.7668 36.8648 28.7992 36.9826 29.6138C37.0352 29.9779 36.9228 30.3352 36.6957 30.6211C36.3984 30.9956 36.017 31.1501 35.557 31.2032C35.4553 31.2057 35.3488 31.1989 35.2481 31.1856C34.8579 31.1345 34.4667 30.8888 34.2289 30.5794C34.0149 30.301 33.9032 29.9431 33.9604 29.5928C34.0743 28.8952 34.7041 28.7564 35.0489 28.241C35.2394 27.9562 35.0303 27.8497 35.3907 27.5765Z" fill="url(#paint19_radial_52_494)"/>
<defs>
<radialGradient id="paint0_radial_52_494" cx="0" cy="0" r="1" gradientUnits="userSpaceOnUse" gradientTransform="translate(7.99341 12.5535) rotate(54.2101) scale(117.661 58.7765)">
<stop stop-color="white"/>
<stop offset="1" stop-color="white" stop-opacity="0"/>
</radialGradient>
<radialGradient id="paint1_radial_52_494" cx="0" cy="0" r="1" gradientUnits="userSpaceOnUse" gradientTransform="translate(7.99341 12.5535) rotate(54.2101) scale(117.661 58.7765)">
<stop stop-color="white"/>
<stop offset="1" stop-color="white" stop-opacity="0"/>
</radialGradient>
<radialGradient id="paint2_radial_52_494" cx="0" cy="0" r="1" gradientUnits="userSpaceOnUse" gradientTransform="translate(7.99341 12.5535) rotate(54.2101) scale(117.661 58.7765)">
<stop stop-color="white"/>
<stop offset="1" stop-color="white" stop-opacity="0"/>
</radialGradient>
<radialGradient id="paint3_radial_52_494" cx="0" cy="0" r="1" gradientUnits="userSpaceOnUse" gradientTransform="translate(7.99341 12.5535) rotate(54.2101) scale(117.661 58.7765)">
<stop stop-color="white"/>
<stop offset="1" stop-color="white" stop-opacity="0"/>
</radialGradient>
<radialGradient id="paint4_radial_52_494" cx="0" cy="0" r="1" gradientUnits="userSpaceOnUse" gradientTransform="translate(7.99341 12.5535) rotate(54.2101) scale(117.661 58.7765)">
<stop stop-color="white"/>
<stop offset="1" stop-color="white" stop-opacity="0"/>
</radialGradient>
<radialGradient id="paint5_radial_52_494" cx="0" cy="0" r="1" gradientUnits="userSpaceOnUse" gradientTransform="translate(7.99341 12.5535) rotate(54.2101) scale(117.661 58.7765)">
<stop stop-color="white"/>
<stop offset="1" stop-color="white" stop-opacity="0"/>
</radialGradient>
<radialGradient id="paint6_radial_52_494" cx="0" cy="0" r="1" gradientUnits="userSpaceOnUse" gradientTransform="translate(7.99341 12.5535) rotate(54.2101) scale(117.661 58.7765)">
<stop stop-color="white"/>
<stop offset="1" stop-color="white" stop-opacity="0"/>
</radialGradient>
<radialGradient id="paint7_radial_52_494" cx="0" cy="0" r="1" gradientUnits="userSpaceOnUse" gradientTransform="translate(7.99341 12.5535) rotate(54.2101) scale(117.661 58.7765)">
<stop stop-color="white"/>
<stop offset="1" stop-color="white" stop-opacity="0"/>
</radialGradient>
<radialGradient id="paint8_radial_52_494" cx="0" cy="0" r="1" gradientUnits="userSpaceOnUse" gradientTransform="translate(7.99341 12.5535) rotate(54.2101) scale(117.661 58.7765)">
<stop stop-color="white"/>
<stop offset="1" stop-color="white" stop-opacity="0"/>
</radialGradient>
<radialGradient id="paint9_radial_52_494" cx="0" cy="0" r="1" gradientUnits="userSpaceOnUse" gradientTransform="translate(7.99341 12.5535) rotate(54.2101) scale(117.661 58.7765)">
<stop stop-color="white"/>
<stop offset="1" stop-color="white" stop-opacity="0"/>
</radialGradient>
<radialGradient id="paint10_radial_52_494" cx="0" cy="0" r="1" gradientUnits="userSpaceOnUse" gradientTransform="translate(7.99341 12.5535) rotate(54.2101) scale(117.661 58.7765)">
<stop stop-color="white"/>
<stop offset="1" stop-color="white" stop-opacity="0"/>
</radialGradient>
<radialGradient id="paint11_radial_52_494" cx="0" cy="0" r="1" gradientUnits="userSpaceOnUse" gradientTransform="translate(7.99341 12.5535) rotate(54.2101) scale(117.661 58.7765)">
<stop stop-color="white"/>
<stop offset="1" stop-color="white" stop-opacity="0"/>
</radialGradient>
<radialGradient id="paint12_radial_52_494" cx="0" cy="0" r="1" gradientUnits="userSpaceOnUse" gradientTransform="translate(7.99341 12.5535) rotate(54.2101) scale(117.661 58.7765)">
<stop stop-color="white"/>
<stop offset="1" stop-color="white" stop-opacity="0"/>
</radialGradient>
<radialGradient id="paint13_radial_52_494" cx="0" cy="0" r="1" gradientUnits="userSpaceOnUse" gradientTransform="translate(7.99341 12.5535) rotate(54.2101) scale(117.661 58.7765)">
<stop stop-color="white"/>
<stop offset="1" stop-color="white" stop-opacity="0"/>
</radialGradient>
<radialGradient id="paint14_radial_52_494" cx="0" cy="0" r="1" gradientUnits="userSpaceOnUse" gradientTransform="translate(7.99341 12.5535) rotate(54.2101) scale(117.661 58.7765)">
<stop stop-color="white"/>
<stop offset="1" stop-color="white" stop-opacity="0"/>
</radialGradient>
<radialGradient id="paint15_radial_52_494" cx="0" cy="0" r="1" gradientUnits="userSpaceOnUse" gradientTransform="translate(7.99341 12.5535) rotate(54.2101) scale(117.661 58.7765)">
<stop stop-color="white"/>
<stop offset="1" stop-color="white" stop-opacity="0"/>
</radialGradient>
<radialGradient id="paint16_radial_52_494" cx="0" cy="0" r="1" gradientUnits="userSpaceOnUse" gradientTransform="translate(7.99341 12.5535) rotate(54.2101) scale(117.661 58.7765)">
<stop stop-color="white"/>
<stop offset="1" stop-color="white" stop-opacity="0"/>
</radialGradient>
<radialGradient id="paint17_radial_52_494" cx="0" cy="0" r="1" gradientUnits="userSpaceOnUse" gradientTransform="translate(7.99341 12.5535) rotate(54.2101) scale(117.661 58.7765)">
<stop stop-color="white"/>
<stop offset="1" stop-color="white" stop-opacity="0"/>
</radialGradient>
<radialGradient id="paint18_radial_52_494" cx="0" cy="0" r="1" gradientUnits="userSpaceOnUse" gradientTransform="translate(7.99341 12.5535) rotate(54.2101) scale(117.661 58.7765)">
<stop stop-color="white"/>
<stop offset="1" stop-color="white" stop-opacity="0"/>
</radialGradient>
<radialGradient id="paint19_radial_52_494" cx="0" cy="0" r="1" gradientUnits="userSpaceOnUse" gradientTransform="translate(7.99341 12.5535) rotate(54.2101) scale(117.661 58.7765)">
<stop stop-color="white"/>
<stop offset="1" stop-color="white" stop-opacity="0"/>
</radialGradient>
</defs>
</svg>
