<svg width="76" height="65" viewBox="0 0 76 65" fill="none" xmlns="http://www.w3.org/2000/svg">
<path d="M20.1426 33.9221C24.9288 33.8518 29.7273 33.9128 34.5136 33.9513C34.5168 34.7718 34.5318 35.5943 34.5084 36.4145C32.8281 36.4943 31.1188 36.4263 29.4348 36.4254L20.1466 36.4296C20.134 35.5938 20.1327 34.758 20.1426 33.9221Z" fill="url(#paint0_radial_52_522)"/>
<path d="M43.2798 33.9303L55.0355 33.9319L55.0367 36.4054C54.1004 36.4311 53.1597 36.4188 52.2228 36.422L45.1864 36.4211C43.6034 36.4217 42.0132 36.4565 40.4313 36.4074L40.4418 33.9427L43.2798 33.9303Z" fill="url(#paint1_radial_52_522)"/>
<path d="M20.141 30.1363C22.3822 30.1019 24.6299 30.1417 26.8717 30.1426C29.4233 30.1435 31.9788 30.1099 34.5299 30.1508C34.5667 30.9882 34.5369 31.8333 34.5184 32.6712C32.5383 32.719 30.5433 32.6653 28.562 32.663L20.1372 32.7005C20.1232 31.8466 20.1383 30.9905 20.141 30.1363Z" fill="url(#paint2_radial_52_522)"/>
<path d="M40.4753 30.1573C43.153 30.0811 45.8523 30.1533 48.5326 30.1556C50.6888 30.1574 52.8711 30.0723 55.0231 30.1737C55.0286 30.5723 55.1178 32.4833 54.9452 32.7069L40.4529 32.6985C40.4359 32.3027 40.3256 30.373 40.4753 30.1573Z" fill="url(#paint3_radial_52_522)"/>
<path d="M29.602 21.6143C31.1997 21.5808 32.8093 21.6181 34.4074 21.6395C34.7185 22.4 35.208 22.986 35.9453 23.3639C35.9898 23.3864 36.0347 23.4079 36.0803 23.4282C36.1257 23.4486 36.1717 23.4677 36.2182 23.4858C36.2646 23.5038 36.3115 23.5206 36.3588 23.5362C36.4061 23.5519 36.4538 23.5664 36.5019 23.5797C36.5499 23.593 36.5982 23.6051 36.6468 23.6159C36.6955 23.6268 36.7443 23.6364 36.7935 23.6448C36.8426 23.6533 36.8919 23.6605 36.9414 23.6664C36.9909 23.6724 37.0405 23.6771 37.0902 23.6806C37.1399 23.684 37.1896 23.6862 37.2395 23.6872C37.2893 23.6882 37.3391 23.6879 37.3889 23.6864C37.4387 23.6849 37.4885 23.6821 37.5382 23.6782C37.5878 23.6741 37.6374 23.6689 37.6868 23.6624C37.7362 23.6559 37.7854 23.6481 37.8344 23.6392C37.8834 23.6303 37.9322 23.6201 37.9808 23.6087C38.0293 23.5973 38.0774 23.5847 38.1253 23.571C38.1732 23.5572 38.2207 23.5421 38.2679 23.526C39.2067 23.2103 39.7996 22.5032 40.2237 21.6376C41.6894 21.609 43.1685 21.6103 44.6341 21.6446C44.4883 22.7596 44.0499 23.759 43.4521 24.7021C43.4296 24.7354 43.4067 24.7684 43.383 24.8009C43.3455 24.853 43.3074 24.9047 43.2686 24.9558C43.2297 25.007 43.1903 25.0576 43.1502 25.1077C43.1101 25.1579 43.0694 25.2075 43.028 25.2566C42.9867 25.3058 42.9447 25.3543 42.9021 25.4024C42.8595 25.4504 42.8164 25.498 42.7726 25.5449C42.7288 25.5919 42.6844 25.6383 42.6395 25.6841C42.5945 25.7299 42.549 25.7752 42.5029 25.8199C42.4568 25.8646 42.4101 25.9087 42.3629 25.9522C42.3157 25.9957 42.2679 26.0386 42.2196 26.0809C42.1713 26.1232 42.1225 26.1649 42.0732 26.206C42.0238 26.247 41.9739 26.2875 41.9236 26.3272C41.8732 26.367 41.8223 26.4062 41.771 26.4447C41.7196 26.4832 41.6677 26.5211 41.6154 26.5583C41.5631 26.5955 41.5103 26.632 41.457 26.6679C41.4038 26.7037 41.3501 26.739 41.296 26.7735C41.2418 26.808 41.1873 26.8418 41.1323 26.8749C41.0773 26.908 41.0219 26.9405 40.9661 26.9722C40.9102 27.0039 40.854 27.0349 40.7974 27.0652C40.7408 27.0956 40.6839 27.1251 40.6265 27.154C40.5692 27.1828 40.5115 27.211 40.4535 27.2384C40.3954 27.2658 40.337 27.2925 40.2783 27.3184C40.2195 27.3443 40.1605 27.3695 40.1011 27.3939C40.0417 27.4183 39.9821 27.442 39.9221 27.4649C39.8622 27.4879 39.8019 27.51 39.7413 27.5314C39.6808 27.5529 39.6201 27.5735 39.559 27.5934C39.4979 27.6132 39.4366 27.6323 39.3751 27.6506C39.3136 27.6689 39.2518 27.6864 39.1898 27.7032C39.1279 27.7199 39.0657 27.7359 39.0034 27.7511C38.941 27.7663 38.8784 27.7806 38.8156 27.7942C38.7529 27.8078 38.69 27.8206 38.6269 27.8326C38.5639 27.8446 38.5006 27.8558 38.4373 27.8663C38.3739 27.8766 38.3105 27.8862 38.2469 27.895C36.1936 28.1872 34.2107 27.6363 32.5622 26.3917C31.0521 25.2516 29.8745 23.5115 29.602 21.6143Z" fill="url(#paint4_radial_52_522)"/>
<path d="M36.4116 12.7021C36.518 12.6929 36.5421 12.6663 36.6303 12.7337C36.6847 13.2944 36.6499 13.8809 36.6488 14.4444L36.6554 17.1952C37.0699 17.1494 37.4335 17.1434 37.8443 17.2174C37.8607 15.7193 37.8649 14.2212 37.8569 12.723C39.648 12.8435 41.342 13.6807 42.608 14.9507C44.0583 16.4057 44.7988 18.2615 44.8011 20.3073C43.3188 20.328 41.8347 20.3144 40.3521 20.3154C40.314 20.1411 40.2524 19.9698 40.1988 19.7996C40.0676 19.4578 39.9201 19.1488 39.6986 18.8554C39.1961 18.1901 38.5152 17.7578 37.6846 17.6463C36.8353 17.5322 36.0349 17.801 35.3632 18.321C34.6949 18.8384 34.3541 19.4817 34.2489 20.3136L29.456 20.3129C29.4574 20.2161 29.4607 20.1194 29.4658 20.0226C29.471 19.926 29.4779 19.8295 29.4868 19.7331C29.4956 19.6366 29.5063 19.5404 29.5189 19.4444C29.5313 19.3485 29.5457 19.2528 29.562 19.1574C29.5782 19.0619 29.5962 18.9668 29.6161 18.872C29.636 18.7773 29.6577 18.683 29.6812 18.5891C29.7047 18.4952 29.73 18.4018 29.7571 18.3088C29.7842 18.2159 29.8131 18.1235 29.8438 18.0317C29.8744 17.9398 29.9068 17.8486 29.941 17.758C29.9751 17.6675 30.011 17.5777 30.0486 17.4885C30.0863 17.3993 30.1256 17.3108 30.1666 17.2231C30.2076 17.1354 30.2504 17.0486 30.2947 16.9625C30.339 16.8765 30.385 16.7913 30.4327 16.7071C30.4803 16.6228 30.5296 16.5395 30.5804 16.4571C30.6313 16.3747 30.6837 16.2933 30.7376 16.213C30.7916 16.1326 30.8471 16.0533 30.9042 15.9751C32.2819 14.0976 34.1291 13.0566 36.4116 12.7021Z" fill="url(#paint5_radial_52_522)"/>
<path d="M14.4556 60.9551L75.2611 60.9812L75.2617 64.0543C73.4085 64.0873 71.5507 64.061 69.697 64.0588L60.7717 64.0692L7.86907 64.0576C5.25016 64.0611 2.62746 64.1004 0.00897151 64.066C0.000125193 63.0333 -0.002179 62.0006 0.00205906 60.9679L14.4556 60.9551Z" fill="url(#paint6_radial_52_522)"/>
<path fill-rule="evenodd" clip-rule="evenodd" d="M20.139 40.6035L45.0446 40.621C45.0822 46.9066 45.082 53.1921 45.0439 59.4776C41.996 59.5155 38.9457 59.5084 35.8961 59.5012H35.8957C34.5573 59.4981 33.219 59.495 31.8812 59.4957C31.8579 58.1546 31.8712 56.8098 31.8845 55.4656V55.4611C31.8923 54.6673 31.9002 53.8737 31.9005 53.0812L31.902 42.1619L30.5358 42.1677L30.5136 59.4917L17.9084 59.495L17.9004 40.6181L20.139 40.6035ZM28.4799 47.4058H28.4869C28.6793 47.4065 28.8718 47.4073 29.0642 47.4075L29.2547 47.4077L29.2514 51.5376C28.4819 51.5456 27.7123 51.5446 26.9429 51.5348L26.9315 47.4086C27.4473 47.4018 27.9637 47.4038 28.4799 47.4058ZM43.8027 47.4084C43.0326 47.3695 42.2515 47.3795 41.4804 47.3915C41.4528 48.3818 41.4619 49.3759 41.4709 50.3688C41.4749 50.813 41.479 51.2568 41.4798 51.7001L43.7933 51.6955L43.8027 47.4084Z" fill="url(#paint7_radial_52_522)"/>
<path fill-rule="evenodd" clip-rule="evenodd" d="M62.9248 40.17L61.06 40.1885C60.9459 40.2201 60.9289 40.2174 60.8731 40.3308C60.7681 40.5444 60.748 40.8792 60.731 41.1601C60.7262 41.2392 60.7217 41.3141 60.7156 41.3808C60.0655 41.5561 59.5624 41.7791 58.9854 42.1178L58.9845 42.1208C58.709 41.8323 58.4181 41.5327 58.086 41.3091C57.4943 41.6923 56.948 42.0802 56.5235 42.6549C56.6716 42.8722 56.8464 43.0684 57.0213 43.2647C57.1686 43.43 57.3159 43.5954 57.4475 43.7735C56.9988 44.333 56.8384 44.8646 56.7439 45.5691C56.6798 45.5636 56.6128 45.5567 56.5438 45.5497C56.1371 45.5079 55.6616 45.4592 55.3109 45.6392C55.1584 46.0121 55.2038 47.1441 55.3161 47.5274C55.426 47.6448 55.6031 47.6477 55.7625 47.6504C55.784 47.6508 55.8052 47.6511 55.8258 47.6518L56.6997 47.6759C56.7989 48.1976 57.0002 48.6977 57.2187 49.1802L57.1583 49.2421C56.852 49.556 56.547 49.8685 56.3162 50.245C56.7667 50.8835 57.5057 51.4598 58.1363 51.9223C58.1909 51.8541 58.2465 51.7861 58.3022 51.7179C58.4965 51.4801 58.6928 51.2398 58.8547 50.9816C59.4716 51.3589 60.0477 51.589 60.7452 51.7719C60.7378 52.1605 60.7614 52.5473 60.8162 52.9321L62.0264 52.9703C62.3483 52.9596 62.5356 52.9109 62.8123 52.7459L62.8018 51.7837C63.3579 51.6392 63.8628 51.4307 64.383 51.2159C64.4849 51.1738 64.5873 51.1315 64.6909 51.0894C64.7551 51.153 64.819 51.2178 64.8831 51.2829C65.0866 51.4895 65.2925 51.6985 65.5179 51.8759C66.018 51.4646 66.5255 51.0125 66.9184 50.495C66.8041 50.3097 66.6623 50.1481 66.5205 49.9864C66.4074 49.8574 66.2942 49.7282 66.1948 49.587C66.5579 49.0056 66.9114 48.314 67.0328 47.6322L68.2982 47.5861C68.4037 47.0807 68.4762 46.0731 68.2483 45.6084C68.065 45.4548 67.5129 45.4867 67.1734 45.5063C67.1135 45.5098 67.0602 45.5128 67.0168 45.5144C66.841 44.8249 66.6021 44.1684 66.2024 43.5745C66.3232 43.4223 66.4517 43.2759 66.5802 43.1296C66.7203 42.9699 66.8604 42.8103 66.9902 42.6436C66.563 42.1105 66.0284 41.5012 65.421 41.1705C65.3552 41.2411 65.2891 41.3115 65.223 41.3819C65.0208 41.5973 64.8185 41.8129 64.6233 42.0345C64.521 41.9907 64.4185 41.9457 64.3155 41.9004C63.8846 41.711 63.4464 41.5185 62.9932 41.4067C63.0559 40.9743 62.9999 40.598 62.9248 40.17ZM63.5881 43.6515C62.9159 43.2288 62.1559 43.1292 61.3773 43.2062C60.4145 43.3763 59.5464 43.8223 58.9791 44.6436C58.4505 45.4088 58.2899 46.3598 58.4643 47.2662C58.4748 47.3221 58.4866 47.3777 58.4998 47.4329C58.5131 47.4883 58.5277 47.5432 58.5436 47.5978C58.5596 47.6524 58.577 47.7066 58.5957 47.7603C58.6144 47.814 58.6344 47.8672 58.6557 47.9199C58.6771 47.9726 58.6998 48.0247 58.7238 48.0763C58.7386 48.1082 58.7539 48.1398 58.7697 48.1712C58.7794 48.1906 58.7894 48.2099 58.7995 48.2292C58.826 48.2795 58.8537 48.3291 58.8827 48.378C58.9118 48.4269 58.9419 48.4751 58.9734 48.5225C59.0048 48.5699 59.0374 48.6165 59.0712 48.6622C59.0892 48.6866 59.1075 48.7108 59.1262 48.7347C59.1425 48.7556 59.159 48.7764 59.1758 48.7969C59.2118 48.8409 59.2489 48.884 59.287 48.9262C59.3252 48.9684 59.3644 49.0095 59.4046 49.0497C59.4449 49.0899 59.4861 49.1291 59.5283 49.1672C59.5704 49.2054 59.6135 49.2424 59.6576 49.2784C59.7016 49.3144 59.7466 49.3493 59.7924 49.3829C59.815 49.3996 59.8379 49.416 59.861 49.4321C59.8845 49.4486 59.9082 49.4647 59.9322 49.4806C60.6578 49.9612 61.4672 50.1087 62.3214 49.9801C63.2957 49.7775 64.1566 49.2631 64.7046 48.4157C64.7348 48.368 64.7639 48.3195 64.7917 48.2704C64.808 48.2417 64.8238 48.2128 64.8393 48.1836C64.8503 48.1628 64.8611 48.1419 64.8716 48.1209C64.897 48.0704 64.9211 48.0193 64.944 47.9677C64.953 47.9473 64.9619 47.9268 64.9705 47.9061C64.9837 47.8747 64.9965 47.8429 65.0088 47.811C65.0291 47.7583 65.0481 47.7051 65.0658 47.6515C65.0835 47.5978 65.0998 47.5437 65.1147 47.4892C65.1217 47.4638 65.1284 47.4384 65.1348 47.4129C65.1422 47.3836 65.1491 47.3543 65.1557 47.3248C65.1611 47.3007 65.1662 47.2765 65.1711 47.2522C65.1773 47.2211 65.1831 47.1899 65.1885 47.1585C65.1939 47.1272 65.1988 47.0959 65.2033 47.0645C65.2068 47.04 65.2101 47.0154 65.2131 46.9908C65.2199 46.9348 65.2253 46.8785 65.2293 46.8222C65.2334 46.7658 65.2361 46.7094 65.2373 46.6529C65.2385 46.5964 65.2384 46.5399 65.2368 46.4834C65.2361 46.4569 65.2351 46.4304 65.2338 46.4039C65.2323 46.374 65.2304 46.3441 65.2281 46.3142C65.2238 46.2579 65.218 46.2016 65.211 46.1456C65.2066 46.1107 65.2016 46.076 65.1962 46.0413C65.1928 46.0201 65.1893 45.9991 65.1856 45.9781C65.1781 45.9355 65.1697 45.8931 65.1606 45.8508C65.1578 45.8379 65.1549 45.8249 65.152 45.812C64.9535 44.9085 64.3681 44.1419 63.5881 43.6515Z" fill="url(#paint8_radial_52_522)"/>
<path fill-rule="evenodd" clip-rule="evenodd" d="M37.7946 0.0281314C37.7256 0.00125427 37.6855 -0.00380543 37.614 0.00234717C36.3333 0.614531 35.096 1.31301 33.859 2.01129L33.8561 2.01299C33.159 2.40652 32.462 2.79996 31.7574 3.17782L17.4046 10.8959C14.0344 12.6667 10.6781 14.4635 7.33566 16.2861C6.65075 16.6657 5.96228 17.0386 5.27024 17.4048C5.21103 17.4361 5.15089 17.4671 5.09011 17.4981C5.03341 17.5269 4.97619 17.5556 4.91872 17.5845C4.57764 17.7558 4.22802 17.9315 3.93085 18.153C3.84606 18.3313 3.7941 18.4782 3.77641 18.6755C3.71591 19.3514 3.73615 25.2449 3.83744 25.5302C3.90964 25.7335 4.06072 25.9151 4.25724 26.0081C4.51989 26.1324 4.85971 26.057 5.11621 25.9538C5.47862 25.8079 5.83306 25.6102 6.18268 25.4151L6.18389 25.4144L6.18608 25.4133C6.3293 25.3333 6.47171 25.2538 6.61352 25.1785C6.80166 25.0787 6.99232 24.9817 7.18317 24.8845C7.53834 24.7039 7.89411 24.5228 8.23543 24.3228C8.27594 24.9143 8.27347 25.5103 8.27096 26.1044V26.1051C8.27036 26.2544 8.26975 26.4035 8.26983 26.5524L8.24478 30.9704C8.16416 30.9702 8.08347 30.9699 8.00273 30.9695L7.77072 30.9679H7.76889C7.34955 30.9649 6.92951 30.9619 6.51129 30.9756C6.50931 31.2432 6.50915 31.5111 6.50898 31.7791C6.50874 32.2617 6.5085 32.7444 6.49753 33.2261C6.47883 33.2261 6.45868 33.2257 6.43727 33.2251L6.407 33.2241L6.3894 33.2235L6.36394 33.2224L6.31663 33.2202L6.2919 33.2189L6.20866 33.2145L6.20077 33.2141H6.20004C5.75851 33.1906 5.11961 33.1565 4.89205 33.3582C4.636 33.5852 3.12214 36.4394 3.01416 36.8752C2.95427 37.1168 2.96066 37.3966 2.96669 37.6608C2.96855 37.7424 2.97038 37.8226 2.97021 37.8996L2.97661 59.5273C7.49851 59.5608 12.0205 59.5623 16.5424 59.5318L16.5539 44.4615L16.5874 39.3247C16.5877 39.2611 16.5884 39.1969 16.5896 39.1321C16.5905 39.0781 16.5917 39.0238 16.5931 38.9692C16.5947 38.9071 16.5965 38.8447 16.5984 38.7819C16.6 38.727 16.6018 38.6719 16.6036 38.6167C16.6223 38.0321 16.6416 37.4299 16.5662 36.8801C16.4946 36.358 15.3284 33.7572 15.0155 33.4498C14.7062 33.1457 13.6363 33.1824 12.9494 33.206C12.7936 33.2113 12.6575 33.216 12.5544 33.2158L12.5569 30.9512C12.3168 30.9523 12.0767 30.9525 11.8364 30.9527C11.2974 30.9531 10.7581 30.9535 10.2196 30.9649C10.1744 28.4222 10.142 25.8459 10.2306 23.3045C11.0155 22.8285 11.8319 22.3966 12.645 21.9666L12.6606 21.9583C12.8226 21.8726 12.9844 21.787 13.1458 21.7011C15.0599 20.7014 16.9682 19.6908 18.8707 18.6692L28.748 13.3636C31.0998 12.0801 33.4597 10.8118 35.8278 9.55851C36.0902 9.41914 36.3498 9.27306 36.6093 9.12697C36.9342 8.94409 37.259 8.76126 37.5894 8.59166C38.1278 8.81728 38.642 9.11434 39.1528 9.40943C39.3706 9.53523 39.5877 9.66067 39.8059 9.78008L43.5562 11.7919C48.3936 14.3613 53.212 16.9657 58.0114 19.6054C58.6684 19.9513 59.3284 20.2941 59.9888 20.6372L60.0092 20.6479C61.7445 21.5494 63.4827 22.4524 65.1798 23.4135L65.1968 30.5415C65.1992 31.0348 65.2033 31.5285 65.2073 32.0224V32.0411C65.2204 33.6285 65.2334 35.2178 65.1913 36.8033C64.899 36.6956 64.6121 36.601 64.3094 36.5269C64.3099 36.4535 64.3135 36.3459 64.3179 36.2168C64.3385 35.6094 64.3751 34.5258 64.176 34.2819C64.0641 34.1449 63.7379 34.0974 63.5755 34.0789C63.1778 34.0335 62.761 34.0369 62.3509 34.0403H62.3456C62.2721 34.0409 62.1989 34.0415 62.1261 34.0418C62.0389 34.0422 61.9522 34.0422 61.8663 34.0412C61.7179 34.0396 61.5671 34.0346 61.4153 34.0297C61.0706 34.0183 60.7214 34.0069 60.3863 34.034C60.2017 34.049 59.8334 34.1009 59.7149 34.2625C59.5017 34.5534 59.5285 35.3903 59.547 35.9693V35.9698L59.5475 35.9843C59.5495 36.0461 59.5513 36.1048 59.5527 36.1595C59.5547 36.2356 59.5559 36.3038 59.5554 36.3615C58.3955 36.6769 57.3765 37.1285 56.3223 37.6988C56.157 37.567 55.9997 37.4217 55.8423 37.2764C55.6164 37.0676 55.3904 36.8588 55.1397 36.6893C55.0815 36.6894 55.0232 36.6891 54.9648 36.6888C54.7934 36.6879 54.6214 36.687 54.4509 36.6967C54.0356 36.936 51.5692 39.4647 51.4581 39.8605C51.4545 39.8732 51.4513 39.886 51.4485 39.899C51.4471 39.9055 51.4457 39.912 51.4445 39.9185C51.4392 39.946 51.4353 39.9741 51.4325 40.0025C51.4308 40.0189 51.4295 40.0354 51.4285 40.052C51.4277 40.0657 51.4271 40.0794 51.4266 40.093C51.4246 40.1531 51.4256 40.2136 51.4265 40.2725V40.2739C51.4269 40.2996 51.4273 40.3251 51.4274 40.35C51.7556 40.8985 52.1878 41.366 52.6812 41.7707C52.3175 42.399 52.0273 43.0503 51.8916 43.7681C51.2255 43.7735 50.561 43.779 49.8963 43.8271C49.6737 43.9698 49.4781 44.0962 49.4168 44.3696C49.295 44.9124 49.2498 47.7941 49.5554 48.1569C49.7938 48.44 50.6208 48.4079 51.197 48.3855C51.2978 48.3816 51.3909 48.378 51.4719 48.3764C51.497 48.3759 51.5208 48.3756 51.5434 48.3756C51.5686 48.3755 51.5922 48.3758 51.614 48.3764C51.7784 49.2685 52.0307 50.1293 52.4525 50.937C52.1331 51.25 51.5744 52.0002 51.593 52.4547C51.6006 52.6403 51.7153 52.8054 51.8226 52.9505C52.0495 53.257 52.3329 53.5394 52.6109 53.8163C52.6777 53.8829 52.7443 53.9493 52.8097 54.0155C52.8473 54.0537 52.8846 54.0918 52.9213 54.13C53.0233 54.2362 53.1234 54.3452 53.2237 54.4544L53.2248 54.4556C53.4493 54.7002 53.6747 54.9457 53.9242 55.1614C54.3136 55.4981 54.6394 55.5573 55.1374 55.5854C55.0916 55.7158 55.0446 55.8472 54.9967 55.9794C54.9131 56.21 54.8269 56.4431 54.74 56.6778C54.3822 57.6449 54.0144 58.6392 53.7823 59.5959C54.3994 59.6 55.0166 59.6009 55.6336 59.5986C55.8665 59.0602 56.067 58.508 56.2675 57.956C56.5176 57.2674 56.7676 56.5789 57.0802 55.9179C57.6545 56.2025 58.2108 56.4742 58.8335 56.6406C58.8087 56.7388 58.7828 56.838 58.7564 56.9381C58.7306 57.0358 58.7043 57.1343 58.6777 57.2334L58.6733 57.2497C58.4684 58.0145 58.2535 58.8169 58.2018 59.5771C59.1351 59.6043 60.071 59.6015 61.0059 59.5986C61.3481 59.5976 61.6901 59.5965 62.0318 59.597C62.313 59.5974 62.5955 59.6005 62.8786 59.6035H62.8927C63.5978 59.6111 64.3063 59.6186 65.0058 59.5864L64.9699 59.3791L64.9698 59.3784C64.816 58.4887 64.6588 57.5798 64.4408 56.7078C65.1964 56.4969 65.9226 56.2018 66.635 55.8747C66.8016 56.4344 66.981 56.9905 67.1603 57.5465L67.161 57.5487C67.3772 58.219 67.5933 58.8892 67.787 59.5656C68.412 59.5632 69.0384 59.5698 69.6631 59.5572C69.4903 58.8644 69.2959 58.1765 69.1015 57.4886C68.9492 56.9497 68.7969 56.4107 68.655 55.8694C69.1717 55.4334 71.7644 52.8548 71.7993 52.334C71.8296 51.8842 71.2813 51.3363 70.9864 51.043L70.9622 51.0193C71.3858 50.0837 71.6521 49.1478 71.8087 48.1339C71.8754 48.1336 71.9783 48.1357 72.1037 48.1384C72.6849 48.1506 73.7497 48.1729 73.9304 48.004C74.2955 47.663 74.2239 45.5408 74.1966 44.7338L74.1948 44.6798C74.1936 44.6446 74.1926 44.6126 74.1917 44.5839C74.185 44.3656 74.1467 43.9887 73.9878 43.8224C73.7774 43.6023 72.3445 43.6343 71.7599 43.6474H71.7588C71.6961 43.6488 71.6432 43.65 71.6027 43.6506C71.4806 42.9563 71.1921 42.2877 70.8636 41.6666C70.9586 41.584 71.0723 41.4934 71.194 41.3966L71.1962 41.3949C71.6401 41.0417 72.1885 40.6054 72.317 40.1667C72.2854 39.9655 72.193 39.8112 72.0729 39.6483C71.7113 39.1578 70.1231 37.4803 69.6593 37.1323C69.5096 37.0199 69.3695 36.9427 69.1875 36.8993C68.7801 36.9719 68.3079 37.4253 67.9415 37.7771C67.8857 37.8307 67.8323 37.882 67.782 37.9291C67.7634 37.9466 67.7453 37.9635 67.7275 37.9797L67.7097 37.996L67.6906 38.0132L67.0982 37.6541C67.1314 36.6634 67.1203 35.6696 67.1093 34.6769C67.105 34.2924 67.1007 33.9079 67.099 33.5239C67.0979 33.2686 67.0965 33.0133 67.0951 32.7579C67.0934 32.4454 67.0915 32.1328 67.0896 31.8202V31.8066C67.0744 29.3083 67.0592 26.8061 67.122 24.3107C67.3773 24.4466 67.6982 24.6347 68.0452 24.8381L68.0463 24.8387C68.8707 25.3219 69.8418 25.8911 70.4283 26.0507C70.6199 26.1028 70.8285 26.1149 71.0198 26.055C71.2082 25.9959 71.3582 25.8748 71.4499 25.6992C71.5339 25.5384 71.5484 25.3373 71.5592 25.1584C71.6042 24.4119 71.6165 18.8056 71.49 18.463C71.4363 18.3174 71.3596 18.1934 71.2359 18.0979C70.7602 17.7303 70.1916 17.4432 69.6395 17.1645L69.639 17.1642L69.6374 17.1634C69.4635 17.0756 69.2914 16.9887 69.1242 16.9004C68.139 16.378 67.1572 15.8493 66.1788 15.3143L52.4195 7.94689L42.1782 2.41129L39.0533 0.710139C38.9215 0.638817 38.7859 0.558388 38.6481 0.476704L38.6477 0.476461C38.3667 0.309896 38.0771 0.13819 37.7946 0.0281314ZM69.3166 39.1186C69.2661 39.0672 69.2155 39.0159 69.1649 38.9647L68.7653 39.2932L69.7101 40.3011L70.0825 39.9142C69.9036 39.7247 69.7234 39.5365 69.542 39.3495C69.4671 39.2724 69.3919 39.1954 69.3166 39.1186ZM54.6894 38.7452C54.8374 38.8836 54.976 39.0308 55.1146 39.1783L55.1558 39.222L55.1046 39.2754L54.98 39.4061C54.687 39.7136 54.3939 40.0213 54.0696 40.2959C53.9375 40.2389 53.8172 40.1024 53.7105 39.9812L53.7103 39.981L53.7089 39.9795C53.6958 39.9645 53.6828 39.9498 53.6701 39.9355C53.6535 39.9169 53.6373 39.899 53.6214 39.8822C53.9126 39.5508 54.221 39.2311 54.528 38.9128C54.5819 38.8569 54.6357 38.8011 54.6894 38.7452ZM11.3846 32.3453C10.1483 32.3564 8.91197 32.3568 7.67565 32.3464C7.67581 32.629 7.66808 32.9121 7.70928 33.1925L11.3806 33.198L11.3846 32.3453ZM5.20351 56.0224L14.8026 56.0035C14.8037 56.0523 14.8052 56.1018 14.807 56.152C14.8086 56.1983 14.8105 56.2452 14.8126 56.2925L14.8182 56.4191C14.8383 56.867 14.8598 57.3442 14.7806 57.7548C14.6643 57.8048 14.5184 57.8001 14.3844 57.7958L14.3818 57.7956C14.3486 57.7946 14.3162 57.7936 14.2851 57.7935C11.0733 57.7758 7.86157 57.7875 4.65 57.8286C4.68165 57.3707 4.68003 56.908 4.67841 56.4472L4.67796 56.2937C4.67772 56.2062 4.6776 56.1188 4.67784 56.0315L5.20351 56.0224ZM14.8163 39.2956L4.72511 39.3006L4.72082 41.1524L14.7978 41.1613C14.8184 40.5395 14.8245 39.9176 14.8163 39.2956ZM5.96709 34.8655C8.56534 34.8479 11.1636 34.8479 13.7618 34.8655C13.7831 34.9118 13.8088 34.9661 13.8381 35.0271C13.855 35.0623 13.8732 35.0997 13.8923 35.1391C13.9184 35.1928 13.9463 35.2502 13.9758 35.3105C14.3226 36.0216 14.8684 37.1408 14.8721 37.5338C14.742 37.6269 14.1341 37.6068 13.7783 37.595C13.6922 37.5922 13.6208 37.5899 13.5745 37.5897C10.5799 37.604 7.5854 37.5875 4.59116 37.5402C4.81313 37.0245 5.11123 36.4748 5.4063 35.9307C5.60234 35.5693 5.797 35.2103 5.96709 34.8655ZM14.8205 42.859L4.68541 42.8645L4.70225 54.3074C5.40978 54.3118 6.11817 54.3178 6.827 54.3239C9.49583 54.3469 12.1712 54.3698 14.8342 54.3042C14.8343 53.138 14.8396 51.9709 14.845 50.8034V50.8015C14.857 48.1533 14.8691 45.5034 14.8205 42.859ZM61.2551 35.7485L62.5965 35.7523C62.6037 36.2156 62.5849 36.6768 62.5661 37.1383V37.139C62.5551 37.4091 62.5441 37.6794 62.5383 37.9503C64.0313 38.1231 65.4347 38.6307 66.6676 39.5003C66.7267 39.5428 66.7854 39.586 66.8435 39.6299C66.9016 39.6738 66.9592 39.7184 67.0163 39.7637C67.0509 39.7912 67.0853 39.819 67.1195 39.847C67.1416 39.8651 67.1637 39.8834 67.1857 39.9017C67.2415 39.9485 67.2968 39.9958 67.3516 40.0438C67.4063 40.0919 67.4605 40.1406 67.514 40.19C67.5676 40.2394 67.6205 40.2894 67.6729 40.34C67.7252 40.3907 67.7769 40.442 67.828 40.494C67.879 40.5459 67.9295 40.5985 67.9792 40.6516C68.0041 40.6782 68.0288 40.7049 68.0534 40.7317C68.078 40.7587 68.1024 40.7857 68.1267 40.8129C68.1458 40.8344 68.1649 40.856 68.1838 40.8777C68.1978 40.8936 68.2117 40.9097 68.2256 40.9258C68.2405 40.9431 68.2553 40.9604 68.2701 40.9778C68.3172 41.0334 68.3637 41.0895 68.4094 41.1461C68.4552 41.2028 68.5002 41.26 68.5446 41.3178C68.589 41.3756 68.6326 41.4339 68.6754 41.4928C68.7184 41.5516 68.7606 41.611 68.8021 41.6709C68.8436 41.7308 68.8843 41.7912 68.9243 41.852C68.9643 41.9129 69.0036 41.9743 69.0421 42.0361C69.0805 42.098 69.1183 42.1603 69.1553 42.223C69.1922 42.2858 69.2284 42.349 69.2638 42.4126C69.2993 42.4763 69.334 42.5404 69.3678 42.6049C69.382 42.632 69.3961 42.6592 69.4101 42.6864C69.4293 42.724 69.4483 42.7618 69.467 42.7996C69.4789 42.8237 69.4907 42.8478 69.5024 42.8719C69.5224 42.9134 69.542 42.9549 69.5614 42.9967C69.5781 43.0326 69.5946 43.0687 69.6108 43.1049C69.6243 43.1352 69.6377 43.1656 69.651 43.196C69.68 43.2628 69.7082 43.33 69.7356 43.3975C69.7445 43.4194 69.7534 43.4415 69.7621 43.4635C69.7802 43.5092 69.798 43.555 69.8153 43.6009C69.841 43.6691 69.8659 43.7376 69.89 43.8063C69.9141 43.8751 69.9372 43.9441 69.9596 44.0134C69.982 44.0828 70.0035 44.1524 70.0242 44.2222C70.0449 44.2921 70.0647 44.3622 70.0836 44.4325C70.0963 44.4796 70.1086 44.5267 70.1205 44.5739C70.1264 44.5973 70.1322 44.6207 70.1379 44.6442C70.1551 44.715 70.1715 44.786 70.187 44.8571C70.2024 44.9283 70.2171 44.9997 70.2308 45.0712C70.2446 45.1427 70.2574 45.2145 70.2695 45.2863C70.8001 45.2698 71.3344 45.2834 71.8676 45.297H71.8695C72.115 45.3033 72.3602 45.3095 72.6047 45.3128L72.6049 46.4372L70.3213 46.4902C70.2572 48.2854 69.8168 49.8179 68.8721 51.3445C69.1839 51.6513 69.4858 51.9675 69.7777 52.2933C69.463 52.7371 69.0724 53.1454 68.6918 53.5432L68.6757 53.56C68.61 53.6287 68.5447 53.6971 68.4801 53.7653C68.1552 53.5889 67.8442 53.3778 67.5308 53.1814C66.2178 54.3295 64.6064 54.7393 62.9726 55.1547C62.8978 55.1737 62.8229 55.1927 62.748 55.2119C62.7376 55.3004 62.7202 55.5089 62.6979 55.7751L62.6977 55.776C62.6298 56.5869 62.5171 57.9322 62.4244 58.0551L62.2533 58.0652L60.9762 58.0648C60.9272 57.1229 60.8148 56.1886 60.6391 55.262C58.7155 54.7034 57.6337 54.2707 55.9887 53.1351C55.7092 53.3489 55.4553 53.5925 55.2016 53.8359L55.1824 53.8543L55.0847 53.9479C54.5975 53.4425 54.1158 52.9423 53.6572 52.4101C53.8932 52.1569 54.1356 51.909 54.3777 51.6613C54.4664 51.5706 54.555 51.48 54.6432 51.3892C53.5787 49.9829 53.2426 48.2298 53.1355 46.5088C52.6654 46.4959 52.1934 46.4989 51.722 46.502C51.5134 46.5034 51.3049 46.5048 51.0968 46.5047L51.1019 45.5419C51.8075 45.5481 52.513 45.5479 53.2186 45.5414C53.2322 45.4358 53.2477 45.3305 53.2651 45.2254C53.2825 45.1204 53.3018 45.0157 53.323 44.9114C53.334 44.857 53.3456 44.8028 53.3577 44.7487C53.3687 44.6989 53.3802 44.6492 53.3922 44.5997C53.4172 44.4962 53.444 44.3931 53.4727 44.2906C53.489 44.2323 53.5059 44.1742 53.5234 44.1163C53.5367 44.0723 53.5503 44.0285 53.5643 43.9847C53.5966 43.8832 53.6308 43.7825 53.6668 43.6823C53.7028 43.5821 53.7406 43.4826 53.7802 43.3838C53.8199 43.285 53.8613 43.1869 53.9044 43.0896C53.9476 42.9922 53.9925 42.8957 54.0392 42.8C54.0554 42.7669 54.0717 42.7338 54.0883 42.7008C54.0991 42.6795 54.1099 42.6582 54.1208 42.637C54.1416 42.5964 54.1628 42.5559 54.1843 42.5156C54.1941 42.4972 54.204 42.4788 54.214 42.4604C54.2547 42.3852 54.2966 42.3106 54.3396 42.2366C54.393 42.1446 54.4482 42.0535 54.5049 41.9634C54.5616 41.8733 54.62 41.7843 54.68 41.6963C54.74 41.6084 54.8015 41.5216 54.8646 41.4358C54.9277 41.3501 54.9924 41.2655 55.0585 41.1821C55.0944 41.1369 55.1308 41.0921 55.1675 41.0476C55.1985 41.01 55.2299 40.9727 55.2615 40.9357C56.6879 39.2791 58.8713 38.1242 61.0562 37.9619C61.1392 37.2256 61.2055 36.4878 61.2551 35.7485ZM51.757 9.89321C46.9152 7.24513 37.7766 2.24695 37.6258 2.2361C36.5934 2.74924 35.5776 3.30807 34.5654 3.86496C34.3572 3.97948 34.1493 4.09391 33.9413 4.20785C32.398 5.03448 30.8637 5.87739 29.3383 6.73657C28.5557 7.17174 27.7643 7.59069 26.9728 8.00963C26.4429 8.29014 25.913 8.57061 25.3858 8.85594C24.7158 9.21857 24.0493 9.58716 23.3827 9.95579C22.5382 10.4228 21.6937 10.8899 20.8422 11.3447L10.3578 16.9462L7.41729 18.5076C7.26982 18.5855 7.1202 18.6618 6.97018 18.7384C6.60393 18.9253 6.23521 19.1136 5.88919 19.3274C5.87854 20.6737 5.87753 22.0199 5.88611 23.3663C6.38976 23.0428 6.92752 22.7704 7.46412 22.4985C7.7417 22.3579 8.01896 22.2174 8.29104 22.0701L14.8381 18.6035L29.7805 10.568C31.7163 9.57061 33.638 8.54681 35.5456 7.49666C35.7736 7.37113 36.0093 7.25108 36.2459 7.1305C36.7163 6.89083 37.1904 6.64922 37.6161 6.35887C38.4282 6.75304 39.2224 7.1949 40.0148 7.63578C40.3648 7.83052 40.7145 8.02505 41.0653 8.21521L45.7353 10.7034L60.1031 18.4023C62.2766 19.5928 64.4638 20.7573 66.6648 21.8959C66.9065 22.0204 67.1596 22.1579 67.4184 22.2984C68.0734 22.6541 68.7643 23.0293 69.3938 23.2631C69.4096 21.9666 69.4161 20.6702 69.4133 19.3737L54.593 11.4424C54.2694 11.2673 53.2055 10.6854 51.757 9.89321Z" fill="url(#paint9_radial_52_522)"/>
<defs>
<radialGradient id="paint0_radial_52_522" cx="0" cy="0" r="1" gradientUnits="userSpaceOnUse" gradientTransform="translate(11.691 12.5535) rotate(43.4817) scale(138.7 72.9255)">
<stop stop-color="white"/>
<stop offset="1" stop-color="white" stop-opacity="0"/>
</radialGradient>
<radialGradient id="paint1_radial_52_522" cx="0" cy="0" r="1" gradientUnits="userSpaceOnUse" gradientTransform="translate(11.691 12.5535) rotate(43.4817) scale(138.7 72.9255)">
<stop stop-color="white"/>
<stop offset="1" stop-color="white" stop-opacity="0"/>
</radialGradient>
<radialGradient id="paint2_radial_52_522" cx="0" cy="0" r="1" gradientUnits="userSpaceOnUse" gradientTransform="translate(11.691 12.5535) rotate(43.4817) scale(138.7 72.9255)">
<stop stop-color="white"/>
<stop offset="1" stop-color="white" stop-opacity="0"/>
</radialGradient>
<radialGradient id="paint3_radial_52_522" cx="0" cy="0" r="1" gradientUnits="userSpaceOnUse" gradientTransform="translate(11.691 12.5535) rotate(43.4817) scale(138.7 72.9255)">
<stop stop-color="white"/>
<stop offset="1" stop-color="white" stop-opacity="0"/>
</radialGradient>
<radialGradient id="paint4_radial_52_522" cx="0" cy="0" r="1" gradientUnits="userSpaceOnUse" gradientTransform="translate(11.691 12.5535) rotate(43.4817) scale(138.7 72.9255)">
<stop stop-color="white"/>
<stop offset="1" stop-color="white" stop-opacity="0"/>
</radialGradient>
<radialGradient id="paint5_radial_52_522" cx="0" cy="0" r="1" gradientUnits="userSpaceOnUse" gradientTransform="translate(11.691 12.5535) rotate(43.4817) scale(138.7 72.9255)">
<stop stop-color="white"/>
<stop offset="1" stop-color="white" stop-opacity="0"/>
</radialGradient>
<radialGradient id="paint6_radial_52_522" cx="0" cy="0" r="1" gradientUnits="userSpaceOnUse" gradientTransform="translate(11.691 12.5535) rotate(43.4817) scale(138.7 72.9255)">
<stop stop-color="white"/>
<stop offset="1" stop-color="white" stop-opacity="0"/>
</radialGradient>
<radialGradient id="paint7_radial_52_522" cx="0" cy="0" r="1" gradientUnits="userSpaceOnUse" gradientTransform="translate(11.691 12.5535) rotate(43.4817) scale(138.7 72.9255)">
<stop stop-color="white"/>
<stop offset="1" stop-color="white" stop-opacity="0"/>
</radialGradient>
<radialGradient id="paint8_radial_52_522" cx="0" cy="0" r="1" gradientUnits="userSpaceOnUse" gradientTransform="translate(11.691 12.5535) rotate(43.4817) scale(138.7 72.9255)">
<stop stop-color="white"/>
<stop offset="1" stop-color="white" stop-opacity="0"/>
</radialGradient>
<radialGradient id="paint9_radial_52_522" cx="0" cy="0" r="1" gradientUnits="userSpaceOnUse" gradientTransform="translate(11.691 12.5535) rotate(43.4817) scale(138.7 72.9255)">
<stop stop-color="white"/>
<stop offset="1" stop-color="white" stop-opacity="0"/>
</radialGradient>
</defs>
</svg>
